<?xml version="1.0" encoding="UTF-8" standalone="no"?>
<!DOCTYPE svg PUBLIC "-//W3C//DTD SVG 1.1//EN" "http://www.w3.org/Graphics/SVG/1.1/DTD/svg11.dtd">
<svg version="1.1" xmlns="http://www.w3.org/2000/svg" xmlns:xlink="http://www.w3.org/1999/xlink" preserveAspectRatio="xMidYMid meet" viewBox="0 0 1130 650" width="1130" height="650"><defs><path d="M1115.59 421.28C1115.59 517.17 866.44 594.9 559.1 594.9C251.76 594.9 2.61 517.17 2.61 421.28C2.61 325.39 251.76 247.66 559.1 247.66C866.44 247.66 1115.59 325.39 1115.59 421.28Z" id="b2uVrzBwgM"></path><path d="M425.72 98.72C427.41 98.68 440.9 98.41 442.58 98.37C441.71 88.4 422.09 47.83 416.64 36.7C413.61 36.22 410.37 35.76 407.03 35.35C416.47 48.58 423.7 87.11 425.72 98.72Z" id="bg1WDwjNG"></path><path d="M196.56 26.74C196.56 26.74 196.56 26.74 196.56 26.74C201.05 26.83 203.53 26.87 204.03 26.88C204.03 26.88 204.03 26.88 204.03 26.88C203.91 33.2 203.85 36.7 203.83 37.4C203.83 37.4 203.83 37.4 203.83 37.4C199.35 37.32 196.86 37.27 196.36 37.26C196.36 37.26 196.36 37.26 196.36 37.26C196.48 30.95 196.55 27.44 196.56 26.74Z" id="c4bvmbUWi2"></path><path d="M196.56 26.74C196.52 28.8 196.5 29.94 196.5 30.17C197.02 30.33 197.57 30.41 198.12 30.42C198.51 30.42 200.46 30.44 203.96 30.48L204.03 26.88L196.56 26.74Z" id="c2kjBuXpGY"></path><path d="M207.69 0.13C203.46 0.05 201.11 0.01 200.64 0C197.2 -0.06 194.05 1.97 192.7 5.14C190.54 10.18 188.64 18.23 193.08 26.38C194.09 28.24 196.02 29.4 198.14 29.42C198.74 29.43 201.74 29.46 207.14 29.51L207.69 0.13Z" id="c1ttWaauxp"></path><path d="M207.69 0.13C211.86 0.21 215.12 6.85 214.97 14.97C214.81 23.08 211.31 29.59 207.14 29.51C202.97 29.44 199.71 22.8 199.86 14.68C200.02 6.57 203.52 0.06 207.69 0.13Z" id="b2AyJeu8iR"></path><path d="M262.92 28.12C262.92 28.12 262.92 28.12 262.92 28.12C267.4 28.2 269.89 28.25 270.38 28.26C270.38 28.26 270.38 28.26 270.38 28.26C270.28 33.79 270.22 36.86 270.21 37.47C270.21 37.47 270.21 37.47 270.21 37.47C265.73 37.39 263.24 37.34 262.74 37.33C262.74 37.33 262.74 37.33 262.74 37.33C262.85 31.8 262.9 28.73 262.92 28.12Z" id="e1j8AKlDLr"></path><path d="M262.92 28.12C262.88 29.88 262.86 30.85 262.86 31.05C263.38 31.21 263.93 31.29 264.48 31.3C264.87 31.3 266.82 31.32 270.33 31.36L270.38 28.26L262.92 28.12Z" id="a4Zfyensi"></path><path d="M274.04 1.51C269.81 1.43 267.46 1.39 266.99 1.38C263.55 1.31 260.41 3.35 259.05 6.51C256.89 11.56 254.99 19.61 259.43 27.76C260.44 29.61 262.38 30.78 264.49 30.8C265.09 30.81 268.09 30.84 273.49 30.89L274.04 1.51Z" id="a1yL1pRLDk"></path><path d="M274.04 1.51C278.21 1.59 281.47 8.23 281.32 16.35C281.17 24.46 277.66 30.97 273.49 30.89C269.32 30.81 266.06 24.17 266.21 16.06C266.37 7.95 269.87 1.43 274.04 1.51Z" id="clNgJwi3w"></path><path d="M273.32 10.99C272.52 12.77 271.92 14.63 271.54 16.54C271.54 16.54 268.73 17.93 268.93 13.14C269.13 8.35 272.06 6.85 272.06 6.85C272.31 7.68 274.84 7.34 273.32 10.99Z" id="a4XsmIMQl"></path><path d="M552.08 173.81C576.42 174.27 595.74 196.27 595.23 222.94C594.73 249.62 574.59 270.87 550.25 270.41C525.91 269.95 506.59 247.96 507.09 221.28C507.6 194.6 527.74 173.35 552.08 173.81Z" id="acofg8NzB"></path><path d="M575.93 225.5C575.54 246.19 563.33 263.61 546.52 270.18C523.49 268.19 505.62 246.86 506.1 221.19C506.49 200.5 518.7 183.08 535.51 176.51C558.54 178.5 576.41 199.83 575.93 225.5Z" id="c2CR9fsZ5f"></path><path d="M209.11 63.38C228.87 63.76 244.49 84.94 244 110.7C243.52 136.46 227.11 157.04 207.35 156.67C187.6 156.3 171.98 135.11 172.46 109.35C172.95 83.59 189.36 63.01 209.11 63.38Z" id="b1CWQtgtCy"></path><path d="M243.9 110.77C243.47 133.4 230.74 152.04 214.26 155.97C199.53 150.01 189.03 131.92 189.43 110.73C189.86 88.09 202.59 69.46 219.07 65.53C233.8 71.49 244.3 89.58 243.9 110.77Z" id="g8D3cgzPUx"></path><path d="M342.45 85.66C342.45 85.66 345.9 78.42 349.24 77.82C349.24 77.82 360.21 76.95 360.21 76.95C360.21 76.95 365.73 101.38 361.61 108.61C357.48 115.84 342.79 102.61 342.79 102.61C342.72 99.22 342.48 87.36 342.45 85.66Z" id="a1WPQ9JfmE"></path><path d="M342.45 85.66C342.45 85.66 345.9 78.42 349.24 77.82C349.24 77.82 360.21 76.95 360.21 76.95C360.21 76.95 365.73 101.38 361.61 108.61C357.48 115.84 342.79 102.61 342.79 102.61C342.72 99.22 342.48 87.36 342.45 85.66Z" id="f514fP2wc4"></path><path d="M404.07 101.94C404.07 101.94 406.58 78.5 393.68 77.83C392.02 77.75 390.36 77.68 388.71 77.48C379.78 76.45 355.43 74.11 358.25 79.73C358.25 79.73 363.67 100.26 359.59 105.33C368.49 104.65 395.18 102.62 404.07 101.94Z" id="aO8W9Rvor"></path><path d="M220.41 142.01C210.03 142.12 204.25 142.17 203.1 142.19C203.1 142.19 200.71 110.26 199.77 107.75C199.77 107.75 198.54 93.28 201.81 91.6C201.81 91.6 215.95 88.01 215.95 88.01C216.46 89.23 219 95.34 223.58 106.33L223.89 122.78L220.41 142.01Z" id="c5Zb4r1h4O"></path><path d="M220.41 142.01C210.03 142.12 204.25 142.17 203.1 142.19C203.1 142.19 200.71 110.26 199.77 107.75C199.77 107.75 198.54 93.28 201.81 91.6C201.81 91.6 215.95 88.01 215.95 88.01C216.46 89.23 219 95.34 223.58 106.33L223.89 122.78L220.41 142.01Z" id="b5dn5wnlXA"></path><path d="M263.24 89.9C263.33 87.77 263.38 86.58 263.39 86.35C263.43 85.22 262.55 84.26 261.42 84.22C261.38 84.22 261.34 84.22 261.29 84.22C252.71 84.42 221.47 85.32 215.95 88.01C215.95 88.01 221.09 132.56 214.29 143.02C214.4 145.4 214.92 157.28 215.86 178.67L292.41 174.38L263.24 89.9Z" id="d3ZuC2jOR0"></path><path d="M270.28 33.88C268.16 33.63 265.64 33.36 262.82 33.08C262.82 33.37 262.79 34.78 262.74 37.33L270.21 37.47C270.25 35.56 270.27 34.36 270.28 33.88Z" id="e5tC9rUdnx"></path><path d="M196.36 37.26L203.83 37.4C203.87 35.47 203.89 34.39 203.9 34.17C201.29 34.71 198.77 35.56 196.37 36.73C196.37 36.8 196.37 36.98 196.36 37.26Z" id="ak1WOYMQ"></path><path d="M168.19 142.31L192.31 100.37L196.34 93.36L193.69 75.38L191.31 79.68L156.9 141.94L156.9 141.94L168.19 142.31Z" id="b2RZfy5Rcu"></path><path d="M264.48 98.8L278.73 80.28L285.25 71.79L281.53 66.58L278.54 70.07L259.97 91.74L259.97 91.74L264.48 98.8Z" id="d9ejjGDIt"></path><path d="M278.54 70.07C278.52 70.43 278.49 70.8 278.46 71.17C278.47 71.78 278.57 74.81 278.73 80.28L285.25 71.79L281.53 66.58C279.94 68.44 278.94 69.6 278.54 70.07Z" id="f18J3h8PvR"></path><path d="M192.31 100.37L196.34 93.36L193.69 75.38L191.31 79.68L191.31 79.68L192.31 100.37Z" id="dwR9Jxjbx"></path><path d="M291.51 83.54C291.51 83.54 297.87 42.01 277.7 35.4C277.44 35.32 277.17 35.26 276.9 35.22C272.24 34.57 228.81 28.73 206.09 34.27C206.09 34.27 190.61 36.3 190.62 44.6C190.95 51.37 192.58 85.22 195.51 146.15L206.63 146.36C205.2 106.08 204.41 83.71 204.25 79.23C204.25 79.23 199.49 49.92 208.32 48.09C208.32 48.09 257.22 43.7 271.26 47.95C271.26 47.95 281.59 45.82 279.45 71.19C279.48 72.1 279.62 76.64 279.86 84.81C286.07 84.13 289.96 83.71 291.51 83.54Z" id="bxVE49N5P"></path><path d="M257.41 95.26C257.27 93.03 258.3 90.87 260.14 89.59C263.29 87.28 272.97 82.36 272.97 82.36C273.18 82.38 274.22 82.48 276.08 82.67L284.98 106L283.43 155.16L266.23 175.63C261.53 132.77 258.59 105.98 257.41 95.26Z" id="boNaWmrwF"></path><path d="M257.41 95.26C257.27 93.03 258.3 90.87 260.14 89.59C263.29 87.28 272.97 82.36 272.97 82.36C273.18 82.38 274.22 82.48 276.08 82.67L284.98 106L283.43 155.16L266.23 175.63C261.53 132.77 258.59 105.98 257.41 95.26Z" id="k4gPuWlMM"></path><path d="M323.5 148.07C323.87 117.79 324.08 100.97 324.12 97.6C324.12 97.6 325.98 78.05 314.29 77.49C314.29 77.49 286.68 77.17 274.62 80.84C273.21 81.27 272.4 82.76 272.83 84.18C272.88 84.35 272.95 84.52 273.04 84.68C275.35 88.88 279.17 99.95 280.58 128.21C280.54 130.22 280.35 140.31 280.01 158.46L323.5 148.07Z" id="aNbog7Ikj"></path><path d="M314.91 178.99L314.96 178.99L339.65 178.89L337.41 145.84L323.7 146.08L279.95 154.97L266.23 175.63L264.67 179.21L264.67 179.21L314.91 178.99Z" id="cxQWnKcQm"></path><path d="M314.91 178.99L314.96 178.99L339.65 178.89L337.41 145.84L323.7 146.08L279.95 154.97L266.23 175.63L264.67 179.21L264.67 179.21L314.91 178.99Z" id="a4EisgruZp"></path><path d="M314.91 178.99L316.15 156.9L279.95 154.97L266.23 175.63L264.67 179.21L264.67 179.21L314.91 178.99Z" id="fgrTdfSdL"></path><path d="M314.96 178.99L339.65 178.89C338.3 159.06 337.56 148.05 337.41 145.84C337.41 145.84 329.46 158.02 316.15 156.9C315.99 159.84 315.59 167.21 314.96 178.99Z" id="fUPdfVWD"></path><path d="M144.9 210.45C144.98 210.45 145.4 210.42 146.16 210.36L158.62 209.47C158.48 200.65 158.41 195.75 158.4 194.77C154.18 194.45 149.94 194.62 145.76 195.29C141.08 196.16 136.97 198.13 137.33 202.34C138.15 211.82 143.38 208.83 144.9 210.45Z" id="d35xSuDua0"></path><path d="M144.9 210.45C145.02 210.44 146.03 210.37 146.16 210.36C147.54 208.27 148.28 205.81 148.27 203.29C148.43 200.41 147.54 197.56 145.76 195.29C141.08 196.16 136.97 198.13 137.33 202.34C138.15 211.82 143.38 208.83 144.9 210.45Z" id="iaEuXGOcg"></path><path d="M331 137.59C342.37 137.8 351.82 125.53 352.11 110.17C352.4 94.82 343.42 82.19 332.05 81.98C320.69 81.76 311.24 94.04 310.95 109.39C310.66 124.75 319.64 137.37 331 137.59ZM334.78 91.5C343.44 91.66 350.3 100.82 350.08 111.96C349.87 123.1 342.68 131.99 334.02 131.83C325.35 131.67 318.5 122.51 318.71 111.37C318.92 100.23 326.12 91.33 334.78 91.5Z" id="g2LexRqY5t"></path><path d="M320.56 127.59L317.24 119.06L331.34 111.19L330.37 118.31L330.37 118.31L320.56 127.59Z" id="c3cWGG0mQt"></path><path d="M309.55 25.26L306.37 28.9L310.68 50.2L320.05 84.57L326.18 108.16L330.54 122.49L333.13 141.41L335.83 154.42L344.5 163.43L362.87 142.56L365.95 135.54L373.3 121.24L355.19 112.35L335.19 110.2L326.22 85.86L319.09 57.73L317.95 24.4L317.95 24.4L309.55 25.26Z" id="c8iJ8Vki8Q"></path><path d="M485.6 128.72L494.81 220.88L356.99 212.47L373.78 167.62L400.66 150.86L339.89 150.71L340.03 125.47L364.7 120.62L414.24 117.57L451.45 116.61L486.75 128.9" id="bu5Zgh3fp"></path><path d="M485.6 128.72L494.81 220.88L356.99 212.47L373.78 167.62L400.66 150.86L339.89 150.71L340.03 125.47L364.7 120.62L414.24 117.57L451.45 116.61L486.75 128.9" id="a1badQD1nB"></path><path d="M323.29 258.72C349.88 258.65 352.3 240.74 352.73 217.89C353.17 195.03 340.66 177.79 324.83 177.49C309 177.19 295.85 193.95 295.42 216.8C294.98 239.65 302.18 260.6 323.29 258.72Z" id="a1GaePeWUP"></path><path d="M314.47 179.81C328.31 182.71 338.69 198.89 338.29 219.74C337.94 238.47 336.24 253.88 321.01 258.87C301.53 259.2 294.83 238.91 295.25 216.84C295.58 199.15 303.54 185.11 314.47 179.81Z" id="a194A966IN"></path><path d="M276.95 189.86L262.41 187.08L251.7 176.86L242.34 157.23L228.8 148.57L195.13 152.5L164.02 153.1L152.74 142.69L165.57 141.19L178.54 141.14L211.11 141.02L249.88 140.72L257.43 162.08L263.2 176.78L269.02 180.43L269.02 180.43L276.95 189.86Z" id="b5tBcG5sJ4"></path><path d="M179.16 220.9C183.15 221.7 203.11 225.73 239.04 232.99L342.26 236.43L354.57 226.37L360.91 227.62L361.17 227.67L445.88 244.37L447.27 244.19L470.51 241.33L591.85 226.37L590.82 208.77L590.22 198.39L588.97 176.83L587.91 171.16L577.15 169.97L572.13 169.41L493.72 160.73L483.47 159.59L477.72 158.95L421.76 150.26L339.89 150.71L340.03 125.47C321.74 65.35 311.58 31.94 309.55 25.26C302.39 26.29 302.46 31.11 302.46 31.11C304.18 37.39 312.77 68.83 328.24 125.41C327.79 159.97 327.54 179.18 327.49 183.02C270.07 187.72 268.46 175.2 259.31 179.24C258.63 176.89 255.2 165.15 249.02 144.01C191.25 143.22 159.16 142.78 152.74 142.69C148.83 147.26 156.83 216.16 156.83 216.16C157.47 217.17 174.69 219.95 179.16 220.9Z" id="bMYli7Iaq"></path><path d="M364.89 233.37L354.54 236.5L352.25 225.83L364.39 189.69L376.57 168.83L396.68 168.38L396.68 168.38L364.89 233.37Z" id="c7ikp4x5Mk"></path><path d="M364.89 233.37L354.54 236.5L352.25 225.83L364.39 189.69L376.57 168.83L396.68 168.38L396.68 168.38L364.89 233.37Z" id="f88eLEA9i"></path><path d="M416.37 178.22C446.92 178.8 471.16 207.35 470.5 242.01C469.85 276.66 444.55 304.28 414 303.71C383.45 303.13 359.22 274.57 359.87 239.92C360.53 205.27 385.82 177.64 416.37 178.22Z" id="d13nOnXvtC"></path><path d="M447.26 245.36C446.76 272.24 431.42 294.88 410.32 303.42C381.41 300.86 359 273.16 359.63 239.82C360.13 212.95 375.46 190.3 396.57 181.76C425.48 184.32 447.89 212.02 447.26 245.36Z" id="afz2kNNcN"></path><path d="M565.53 134.05L568.03 147.01L575.66 186.71C597.31 185.02 609.34 184.09 611.75 183.9C611.75 183.9 614.03 177.3 608.44 174.71C608.44 174.71 607.01 152.2 600.48 145C599.78 144.18 598.9 143.54 597.9 143.13C593.59 141.92 582.8 138.89 565.53 134.05Z" id="dtoOmR2Fi"></path><path d="M568.03 147.01L575.66 186.71C597.31 185.02 609.34 184.09 611.75 183.9C611.75 183.9 614.03 177.3 608.44 174.71C608.44 174.71 607.01 152.2 600.48 145C596.16 145.27 585.34 145.93 568.03 147.01Z" id="b2yLwi0UMZ"></path><path d="M489.43 215.8C495.35 214.94 524.93 210.62 578.18 202.86C577 165.08 576.35 144.09 576.22 139.89C574.6 128.57 567.99 127.12 567.99 127.12C537.08 110.76 465.43 106.08 465.43 106.08C399.99 107.34 340.03 125.47 340.03 125.47C414.61 115.42 484.3 136 484.3 136C479.5 143.71 488.4 199.84 489.43 215.8Z" id="b5LqOn4ccE"></path><path d="M578.18 202.86C577 165.08 576.35 144.09 576.22 139.89C574.6 128.57 567.99 127.12 567.99 127.12C567.99 127.12 503.53 119.75 484.3 136C479.5 143.71 489.43 215.8 489.43 215.8C501.26 214.07 530.85 209.76 578.18 202.86Z" id="afwoyaLNl"></path><path d="M573.07 200.76C572.1 168.52 571.56 150.61 571.45 147.03C570.1 137.37 564.57 136.14 564.57 136.14C564.57 136.14 510.68 129.88 494.59 143.74C490.58 150.32 498.86 211.82 498.86 211.82C508.76 210.35 533.49 206.66 573.07 200.76Z" id="aT5nCu7MU"></path><path d="M506.13 149.36C511.72 149.47 516.1 157.8 515.91 167.98C515.71 178.15 511.02 186.32 505.43 186.21C499.84 186.11 495.46 177.77 495.65 167.6C495.85 157.42 500.54 149.26 506.13 149.36Z" id="a2eBt4n9d"></path><path d="M506.14 148.86C511.73 148.97 516.11 157.3 515.91 167.48C515.72 177.66 511.03 185.82 505.44 185.71C499.85 185.61 495.47 177.27 495.66 167.1C495.86 156.92 500.55 148.76 506.14 148.86Z" id="d2LK6b7SHR"></path><path d="M506.59 159.83C505.4 162.47 504.51 165.24 503.95 168.08C503.95 168.08 499.76 170.16 500.06 163.03C500.36 155.89 504.72 153.65 504.72 153.65C505.09 154.89 508.86 154.39 506.59 159.83Z" id="e3zkBnYook"></path><path d="M560.52 144.29C565.75 144.39 569.84 152.18 569.66 161.69C569.48 171.2 565.1 178.82 559.87 178.72C554.65 178.63 550.56 170.84 550.74 161.33C550.91 151.82 555.3 144.19 560.52 144.29Z" id="emUOsMdl"></path><path d="M560.53 143.79C565.76 143.89 569.85 151.68 569.67 161.19C569.49 170.7 565.11 178.33 559.88 178.23C554.66 178.13 550.57 170.34 550.74 160.83C550.92 151.32 555.31 143.69 560.53 143.79Z" id="dA8M23ZGD"></path><path d="M561.01 153.55C559.82 156.19 558.93 158.96 558.36 161.81C558.36 161.81 554.17 163.89 554.47 156.75C554.78 149.62 559.14 147.37 559.14 147.37C559.51 148.61 563.27 148.12 561.01 153.55Z" id="g8V1Mqdimf"></path><path d="M520.6 209.74C520.97 209.69 522.86 209.41 526.25 208.91L529.39 208.45L533.58 207.83L534.08 207.76L550.57 205.33C549.23 173.17 548.48 155.31 548.33 151.74C548.18 148.16 545.25 145.34 541.68 145.31C541.51 145.31 541.34 145.32 541.17 145.33C540.04 145.41 538.81 145.5 537.53 145.62C536.99 145.67 536.45 145.72 535.89 145.78C534.31 145.94 532.68 146.13 531.08 146.37C530.26 146.49 529.45 146.62 528.66 146.76C527.31 147 526.01 147.27 524.81 147.58C523.99 147.79 523.22 148.02 522.51 148.27C519.52 149.29 517.55 150.64 517.7 152.4C518.23 159.22 520.02 198.27 520.6 209.74Z" id="a4on0vR4Vs"></path><path d="M543.76 205.53L545.59 205.4C544.35 169.51 543.67 149.57 543.53 145.59C542.93 145.41 542.3 145.32 541.68 145.31C541.95 153.34 542.65 173.41 543.76 205.53Z" id="a4cDhYLcJp"></path><path d="M537.76 206.58L540.58 206.63C538.75 170.02 537.73 149.69 537.53 145.62C536.99 145.67 536.45 145.72 535.89 145.78C536.14 153.88 536.76 174.15 537.76 206.58Z" id="eKbw4bRv6"></path><path d="M532.26 207.81L534.08 207.84L534.08 207.76C532.28 170.92 531.28 150.46 531.08 146.37C530.26 146.49 529.45 146.62 528.66 146.76C529.14 154.9 530.34 175.25 532.26 207.81Z" id="b5KJcyXUHg"></path><path d="M526.25 208.91L526.26 209.02L529.41 208.75L529.39 208.45C526.64 171.93 525.12 151.64 524.81 147.58C523.99 147.79 523.22 148.02 522.51 148.27C523.01 156.36 524.25 176.57 526.25 208.91Z" id="bA05dKb8N"></path><path d="M589.14 196.43C589.14 196.43 595.83 165.05 581.92 163.16C581.92 163.16 522.13 163.78 523.25 176.75C523.25 176.75 525.5 209.42 525.5 209.42C526.45 209.23 534.05 207.68 535 207.48C535 207.48 528.47 177.72 539.57 176.81C539.57 176.81 577.87 173.3 577.87 173.3C577.87 173.3 585.23 172.19 580.51 198.13C582.24 197.79 587.41 196.77 589.14 196.43Z" id="d1yK9xrMOF"></path><path d="M589.08 199.41C589.08 199.41 595.81 166.04 581.9 164.16C581.9 164.16 522.11 164.77 523.23 177.75C523.23 177.75 525.48 210.42 525.48 210.42C526.43 210.22 534.03 208.67 534.98 208.48C534.98 208.48 528.45 178.72 539.55 177.81C539.55 177.81 577.85 174.29 577.85 174.29C577.85 174.29 585.18 175.18 580.45 201.12C582.18 200.78 587.35 199.76 589.08 199.41Z" id="j2eOPq1I4y"></path><path d="M354.54 236.5C364.25 197.16 379.49 172.87 379.49 172.87C384.52 170.31 438.95 171.67 438.95 171.67C444.58 172.77 445.74 190.73 445.74 190.73C445.74 190.73 440.84 194.79 445.44 197.53C447.49 198.76 454.32 199.11 462.2 198.86C471.99 198.53 483.4 197.26 489.31 195.54C500 192.42 491.65 186.12 491.65 186.12C491.65 186.12 490.2 184.1 489.41 173.12C488.85 166.71 486.89 160.51 483.69 154.93C483.25 154.16 482.96 153.74 482.96 153.74C482.42 153.2 481.76 152.77 481.05 152.49C467.08 146.34 398 150.64 398 150.64C395.43 151.4 374.86 157.53 372.29 158.29C371.58 158.56 370.45 160.35 369.05 163.2C360.65 180.37 342.26 236.43 342.26 236.43C344.71 236.45 353.31 236.49 354.54 236.5Z" id="bE82J3oHb"></path><path d="M354.54 236.5C364.25 197.16 379.49 172.87 379.49 172.87C384.52 170.31 438.95 171.67 438.95 171.67C444.58 172.77 445.74 190.73 445.74 190.73C445.74 190.73 440.84 194.79 445.44 197.53C447.49 198.76 454.32 199.11 462.2 198.86C471.99 198.53 483.4 197.26 489.31 195.54C500 192.42 491.65 186.12 491.65 186.12C491.65 186.12 490.2 184.1 489.41 173.12C488.85 166.71 486.89 160.51 483.69 154.93C483.25 154.16 482.96 153.74 482.96 153.74C482.42 153.2 481.76 152.77 481.05 152.49C467.08 146.34 398 150.64 398 150.64C395.43 151.4 374.86 157.53 372.29 158.29C371.58 158.56 370.45 160.35 369.05 163.2C360.65 180.37 342.26 236.43 342.26 236.43C344.71 236.45 353.31 236.49 354.54 236.5Z" id="mlzkICXhw"></path><path d="M457.76 160.57C464.78 154.79 477.78 154.65 483.69 154.93C483.25 154.16 482.96 153.74 482.96 153.74C482.42 153.2 481.76 152.77 481.05 152.49C467.08 146.34 398 150.64 398 150.64C395.43 151.4 374.86 157.53 372.29 158.29C371.58 158.56 370.45 160.35 369.05 163.2C392.83 154.48 440.02 161.1 457.76 160.57Z" id="aSegnMj3R"></path><path d="M461.05 188.86C461.62 192.17 462.01 195.51 462.2 198.86C471.99 198.53 483.4 197.26 489.31 195.54C500 192.42 491.65 186.12 491.65 186.12C491.65 186.12 490.2 184.1 489.41 173.12C488.81 166.25 486.6 159.61 482.96 153.74C482.42 153.2 481.76 152.77 481.05 152.49C471.78 154.49 452.84 159.07 453.9 162.99C455.29 168.16 459.62 183.69 461.05 188.86Z" id="a6M3wgfDA"></path><path d="M461.05 188.86C461.62 192.17 462.01 195.51 462.2 198.86C471.99 198.53 483.4 197.26 489.31 195.54C500 192.42 491.65 186.12 491.65 186.12C491.65 186.12 490.2 184.1 489.41 173.12C488.81 166.25 486.6 159.61 482.96 153.74C482.42 153.2 481.76 152.77 481.05 152.49C471.78 154.49 452.84 159.07 453.9 162.99C455.29 168.16 459.62 183.69 461.05 188.86Z" id="a3BLihffJ8"></path><path d="M340.03 125.47L467.16 107.07C457.08 70.94 451.48 50.87 450.36 46.85C450.36 46.85 447.76 33.1 441.18 31.98C441.18 31.98 339.55 12.38 309.55 25.26C313.61 38.62 323.77 72.03 340.03 125.47ZM379.99 34.19C388.12 33.56 397.92 34.25 407.03 35.35C410.37 35.76 413.61 36.22 416.64 36.7C423.41 37.76 429.16 38.9 432.6 39.61C434.78 40.07 436.04 40.36 436.04 40.36C448.04 44.32 453.95 94.24 453.95 94.24C454.85 99.49 448.64 98.25 448.64 98.25C448.62 98.25 448.48 98.26 448.24 98.26L442.58 98.37L425.72 98.72C376.39 99.71 348.98 100.27 343.5 100.38C338.65 99.79 338.01 94.05 338.01 94.05C335.47 89.89 323.7 40.97 323.7 40.97C319.59 27.45 368.73 35.55 379.99 34.19Z" id="b8AT3G55p"></path><path d="M448.64 98.25C448.64 98.25 454.85 99.49 453.95 94.24C453.95 94.24 448.04 44.32 436.04 40.36C436.04 40.36 434.78 40.07 432.6 39.61C436.82 48.25 450.34 77.81 448.24 98.26C448.32 98.26 448.6 98.25 448.64 98.25Z" id="b78sGAHlKe"></path><path d="M448.64 98.25C448.64 98.25 454.85 99.49 453.95 94.24C453.95 94.24 448.04 44.32 436.04 40.36C436.04 40.36 434.78 40.07 432.6 39.61C436.82 48.25 450.34 77.81 448.24 98.26C448.32 98.26 448.6 98.25 448.64 98.25Z" id="c4CTld16po"></path><path d="M442.19 225.22C442.36 225.21 443.21 225.19 444.73 225.16L468.68 224.58L477.31 224.37L485.29 223.86L590.82 208.77L590.22 198.39L578.09 199.89L573.07 200.52L498.58 209.74L488.78 210.96L484.03 211.54L463.94 211.02C450.9 210.68 443.65 210.49 442.2 210.45C441.1 210.42 440.01 210.61 438.98 211.01C437.1 211.71 435.57 213.12 434.69 214.93C433.77 216.81 433.8 219.01 434.77 220.87C436.19 223.64 439.08 225.33 442.19 225.22Z" id="bhyhtwUUn"></path><path d="M442.17 226.21C444.51 226.16 456.22 225.87 477.29 225.36L485.27 224.85L597.81 208.77L606.66 207.5C609.55 207.09 611.16 206.86 611.48 206.81C620.98 205 618.33 195.48 618.33 195.48C617.75 191.15 601.56 186.86 596.25 186.93C592.68 186.97 592.07 192.47 592.07 196.07C592.06 197.83 592.2 199.14 592.2 199.14C591.85 199.18 590.09 199.4 586.93 199.79L484.01 212.54C458.91 211.88 444.97 211.52 442.18 211.44C439.02 211.33 436.08 213.08 434.68 215.93C433.75 217.8 433.78 220.01 434.75 221.87C436.17 224.63 439.06 226.33 442.17 226.21Z" id="i79XyAh2sM"></path><path d="M592.2 199.14C592.2 199.14 595.14 193.05 603.77 193.05C601.46 194.27 599.18 198.44 592.2 199.14Z" id="dgw9FEfl"></path><path d="M619.27 216.42C619.27 216.42 609.8 225.54 609.8 225.54C600.97 227.07 556.82 234.7 477.36 248.45C454.84 248.42 442.33 248.41 439.83 248.4C439.83 248.4 426.92 237.7 440.61 233.31C443.14 233.42 455.74 233.99 478.44 235.02C554.19 222.6 596.28 215.7 604.7 214.32C604.7 214.32 601.46 209.78 604.64 208.51C607.57 210.09 619.42 208.46 619.27 216.42Z" id="d3dlpVbnRF"></path><path d="M477.34 249.44L595.1 229.08L603.72 227.59C607.35 226.96 609.37 226.61 609.78 226.54C609.78 226.54 619.1 225.39 619.25 217.42C619.36 211.7 611.77 210.11 607.48 209.68C605.8 209.5 604.62 209.51 604.62 209.51C601.44 210.77 604.68 215.32 604.68 215.32C604.37 215.37 602.84 215.62 600.08 216.07L478.42 236.02C455.73 234.99 443.12 234.42 440.6 234.3C426.9 238.69 439.81 249.4 439.81 249.4C444.82 249.4 457.32 249.42 477.34 249.44Z" id="c2q266QBBR"></path><path d="M585.91 198.19L581.92 197.95L581.62 231.49L593.95 229.23L599.16 226.01C600.81 217.67 601.73 213.04 601.92 212.11C601.92 212.11 601.03 206.28 600.54 205.77C600.05 205.27 593.64 201.83 593.64 201.83C592.61 201.34 590.03 200.13 585.91 198.19Z" id="bf8m36TLs"></path><path d="M585.91 198.19L581.92 197.95L581.62 231.49L593.95 229.23L599.16 226.01C600.81 217.67 601.73 213.04 601.92 212.11C601.92 212.11 601.03 206.28 600.54 205.77C600.05 205.27 593.64 201.83 593.64 201.83C592.61 201.34 590.03 200.13 585.91 198.19Z" id="d1dcEwMae3"></path><path d="M594.95 229.25C595.82 229.1 602.75 227.9 603.61 227.75C603.65 227.7 603.68 227.64 603.72 227.59C608.41 220.34 608.91 214.39 607.48 209.68C605.8 209.5 604.62 209.51 604.62 209.51C601.44 210.77 604.68 215.32 604.68 215.32C604.22 215.39 600.54 216 600.08 216.07C600.27 222.64 595.96 228.06 595.1 229.08C595 229.19 594.98 229.22 594.95 229.25Z" id="aJSIY16ab"></path><path d="M582.92 197.97C585.09 198.85 586.53 199.61 586.93 199.79C592.47 202.59 595.86 205.67 597.81 208.77C598.7 208.64 605.78 207.63 606.66 207.5C602.99 199.48 593.92 195.69 593.92 195.69C593.8 195.71 593.18 195.84 592.07 196.07C587.19 197.08 584.14 197.71 582.92 197.97Z" id="a1bx6aKxCn"></path><path d="M592.93 195.67C592.93 195.67 616.98 205.75 602.62 227.73C601.75 227.88 594.82 229.08 593.95 229.23C593.95 229.23 611.42 209.97 581.92 197.95C584.13 197.49 590.73 196.12 592.93 195.67Z" id="avakhVXZz"></path><path d="M526 204.86L526.82 240.91L541.31 238.53L547.5 235.66L550.46 228.57L552.59 221.47L547.9 214.91L542.49 211.15L534.96 205.37L534.96 205.37L526 204.86Z" id="g2hxB3cEVM"></path><path d="M526 204.86L526.82 240.91L541.31 238.53L547.5 235.66L550.46 228.57L552.59 221.47L547.9 214.91L542.49 211.15L534.96 205.37L534.96 205.37L526 204.86Z" id="a58t9byvdW"></path><path d="M535.74 216.67C538.13 216.72 540 220.02 539.92 224.06C539.84 228.09 537.85 231.32 535.47 231.28C533.08 231.23 531.21 227.93 531.29 223.89C531.36 219.86 533.36 216.63 535.74 216.67Z" id="b21dBaCMpp"></path><path d="M576.58 234.67C577.76 235.18 578.31 236.56 577.8 237.75C577.76 237.82 577.73 237.89 577.69 237.96C576.68 239.77 575.46 242.12 575.56 242.75C575.72 243.81 573.38 242.89 573.07 242.64C572.76 242.38 568.46 242.55 568.27 239.62C568.22 237.82 569.13 236.13 570.66 235.18C570.6 234.75 570.31 232.61 569.78 228.75L575.7 228.37L575.53 234.22C576.09 234.46 576.44 234.61 576.58 234.67Z" id="bfbzAcmsT"></path><path d="M576.58 234.67C577.76 235.18 578.31 236.56 577.8 237.75C577.76 237.82 577.73 237.89 577.69 237.96C576.68 239.77 575.46 242.12 575.56 242.75C575.72 243.81 573.38 242.89 573.07 242.64C572.76 242.38 568.46 242.55 568.27 239.62C568.22 237.82 569.13 236.13 570.66 235.18C570.6 234.75 570.31 232.61 569.78 228.75L575.7 228.37L575.53 234.22C576.09 234.46 576.44 234.61 576.58 234.67Z" id="fR0W9voZY"></path><path d="M573.71 241.59C574.58 241.86 574.97 234.52 574.97 234.52C574.72 235.93 572.84 241.33 573.71 241.59Z" id="a61hwmxLL"></path><path d="M571.5 239.93C572.37 240.2 572.76 232.86 572.76 232.86C572.5 234.27 570.63 239.66 571.5 239.93Z" id="aJsC0PC93"></path><path d="M549.28 211.78C551.04 224.17 552.02 231.05 552.22 232.43C552.22 232.43 556.33 231.94 558.61 231.5C559.11 231.44 559.59 231.3 560.05 231.08C560.16 230.97 560.41 230.98 560.73 231.05C560.73 231.05 560.73 231.05 560.73 231.05C561.84 231.3 563.79 232.25 564.19 231.49C564.22 231.43 564.26 231.37 564.3 231.33C564.3 231.33 564.31 231.32 564.31 231.32C564.7 230.91 565.45 231.23 566.18 231.35C566.57 231.46 566.99 231.41 567.35 231.22C567.97 230.82 569.19 231.5 570.21 231.74C570.85 231.89 571.4 231.87 571.66 231.3C571.87 230.92 572.24 230.67 572.67 230.61C572.67 230.61 572.67 230.61 572.67 230.61C573.63 230.39 574.97 230.58 575.75 230.43C576.05 230.38 576.26 230.27 576.34 230.06C576.49 229.61 577.35 229.42 578.27 229.26C579.39 229.07 580.59 228.93 580.68 228.48C580.71 228.33 580.82 228.27 580.99 228.27C581.6 228.37 582.21 228.53 582.8 228.75C582.8 228.75 582.8 228.75 582.8 228.75C583.3 228.89 583.71 228.9 583.84 228.54C583.97 228.15 584.54 228.21 585.19 228.38C585.72 228.52 586.3 228.73 586.74 228.85C587.15 228.94 587.43 228.96 587.49 228.78C587.67 228.12 589.79 229.65 590.32 228.33C590.84 227.01 597.81 218.34 589.23 206.73C589.23 206.73 586.85 206.84 585.02 207.14C584.42 207.21 583.82 207.36 583.26 207.6C583.25 207.6 583.25 207.6 583.24 207.61C582.19 207.88 581.11 207.98 580.03 207.92C579.41 207.91 578.8 208.05 578.24 208.31C578.02 208.42 577.84 208.61 577.73 208.83C577.44 209.46 576.8 209.57 576.11 209.52C575.17 209.45 574.13 209.07 573.74 209.25C573.73 209.26 573.72 209.26 573.7 209.27C573 209.55 570.4 209.21 569.95 209.64C569.94 209.65 569.93 209.66 569.92 209.68C569.72 209.95 568.71 209.64 567.67 209.48C567.67 209.48 567.66 209.48 567.66 209.48C566.96 209.27 566.21 209.38 565.6 209.77C565.13 210.12 564.55 210.28 563.97 210.21C563.26 210.15 562.56 210.16 561.85 210.26C561.69 210.3 561.54 210.39 561.43 210.51C561 211.03 559.99 210.94 559.09 210.97C558.62 210.94 558.16 211.05 557.76 211.28C557.62 211.37 557.45 211.44 557.28 211.47C555.94 211.56 554.59 211.47 553.28 211.19C552.75 211.27 551.41 211.47 549.28 211.78Z" id="a3oWCOjOM2"></path><path d="M586.74 228.85C593.68 218.52 588.16 210.47 585.02 207.14C584.42 207.21 583.82 207.36 583.26 207.6C589.88 215.54 586.55 225.24 585.19 228.38C585.72 228.52 586.3 228.73 586.74 228.85Z" id="a17eghMZZf"></path><path d="M582.8 228.75C582.8 228.75 582.8 228.75 582.8 228.75C588.77 218.66 582.97 210.92 580.03 207.92C579.41 207.91 578.8 208.05 578.24 208.31C584.57 215.49 582.48 224.24 580.99 228.27C581.6 228.37 582.21 228.53 582.8 228.75Z" id="c5CHRBOp1e"></path><path d="M576.34 230.06C576.49 229.61 577.35 229.42 578.27 229.26C583.51 220.11 579.11 212.93 576.11 209.52C575.17 209.45 574.13 209.07 573.74 209.25C573.73 209.26 573.72 209.26 573.7 209.27C580.69 217.41 577.06 227.48 575.75 230.43C576.05 230.38 576.26 230.27 576.34 230.06Z" id="a3ShYyn3AG"></path><path d="M571.66 231.3C571.87 230.92 572.24 230.67 572.67 230.61C572.67 230.61 572.67 230.61 572.67 230.61C578.77 220.43 572.9 212.62 569.95 209.64C569.94 209.65 569.93 209.66 569.92 209.68C569.72 209.95 568.71 209.64 567.67 209.48C575.89 218.1 571.37 229.27 570.21 231.74C570.85 231.89 571.4 231.87 571.66 231.3Z" id="cChGp9mhv"></path><path d="M566.18 231.35C572.53 221.25 567.02 213.42 563.97 210.21C563.26 210.15 562.56 210.16 561.85 210.26C568.89 218.12 565.74 227.91 564.31 231.32C564.7 230.91 565.45 231.23 566.18 231.35Z" id="a135xJZ2Po"></path><path d="M560.05 231.08C560.16 230.97 560.41 230.98 560.73 231.05C560.73 231.05 560.73 231.05 560.73 231.05C566.36 221.83 562.15 214.53 559.09 210.97C558.62 210.94 558.16 211.05 557.76 211.28C557.62 211.37 557.45 211.44 557.28 211.47C563.09 219.27 559.92 228.48 558.61 231.5C559.11 231.44 559.59 231.3 560.05 231.08Z" id="bleIdT6Oc"></path><path d="M398.17 203.78C413.11 204.06 424.88 222.13 424.47 244.13C424.05 266.13 411.6 283.74 396.66 283.45C381.72 283.17 369.94 265.11 370.36 243.11C370.77 221.1 383.22 203.5 398.17 203.78Z" id="b4YqKW6UK9"></path><path d="M398.92 211.93C409.79 212.13 418.32 226.76 417.98 244.59C417.65 262.42 408.57 276.7 397.7 276.5C386.84 276.29 378.31 261.67 378.64 243.84C378.98 226.01 388.06 211.72 398.92 211.93Z" id="bxbDdHblA"></path><path d="M398.94 210.93C409.81 211.14 418.34 225.76 418 243.59C417.67 261.42 408.59 275.71 397.72 275.5C386.86 275.3 378.33 260.68 378.66 242.85C379 225.02 388.08 210.73 398.94 210.93Z" id="e9h3CzzSw"></path><path d="M395.25 217.51C396.53 217.53 397.54 219.33 397.5 221.53C397.46 223.73 396.38 225.5 395.1 225.47C393.82 225.45 392.81 223.65 392.85 221.45C392.89 219.25 393.97 217.48 395.25 217.51Z" id="djMILKI4E"></path><path d="M385.3 252.19C386.58 252.21 387.59 254.02 387.54 256.22C387.5 258.42 386.43 260.18 385.14 260.16C383.86 260.13 382.85 258.33 382.9 256.13C382.94 253.93 384.01 252.16 385.3 252.19Z" id="aF872CJZx"></path><path d="M410.67 236.06C411.96 236.09 412.96 237.89 412.92 240.09C412.88 242.29 411.81 244.05 410.52 244.03C409.24 244.01 408.23 242.2 408.27 240C408.32 237.8 409.39 236.04 410.67 236.06Z" id="f77MJ8P26N"></path><path d="M403.43 259.17C404.71 259.2 405.72 261 405.68 263.2C405.64 265.4 404.56 267.16 403.28 267.14C401.99 267.12 400.99 265.31 401.03 263.11C401.07 260.91 402.15 259.15 403.43 259.17Z" id="a2EvvD66q8"></path><path d="M200.78 166.18C200.78 166.18 180.38 217.6 181.32 220.85C181.32 220.85 173 225.68 171.04 224.4C169.07 223.11 171.24 200.24 171.24 200.24C171.52 198.9 172.89 192.2 175.36 180.14L179.82 168.27C191 167.15 197.98 166.46 200.78 166.18Z" id="ePszcvvgi"></path><path d="M200.78 166.18C200.78 166.18 180.38 217.6 181.32 220.85C181.32 220.85 173 225.68 171.04 224.4C169.07 223.11 171.24 200.24 171.24 200.24C171.52 198.9 172.89 192.2 175.36 180.14L179.82 168.27C191 167.15 197.98 166.46 200.78 166.18Z" id="b266lM9atI"></path><path d="M382.38 230.55C383.67 230.57 384.67 232.37 384.63 234.57C384.59 236.77 383.52 238.54 382.23 238.51C380.95 238.49 379.94 236.69 379.98 234.49C380.03 232.29 381.1 230.52 382.38 230.55Z" id="hHfa4bKUc"></path><path d="M394.92 234.93C398.68 235.01 401.65 239.3 401.55 244.52C401.45 249.75 398.32 253.93 394.56 253.86C390.8 253.79 387.84 249.49 387.94 244.27C388.03 239.04 391.16 234.86 394.92 234.93Z" id="a1wPXkFArE"></path><path d="M214.38 289.97C249.25 289.89 252.44 266.38 253 236.41C253.57 206.43 237.16 183.8 216.39 183.41C195.63 183.02 178.38 205.01 177.81 234.99C177.24 264.96 186.69 292.44 214.38 289.97Z" id="b2S7LthN2D"></path><path d="M202.8 186.45C220.96 190.26 234.58 211.49 234.06 238.84C233.6 263.41 231.37 283.62 211.39 290.17C185.84 290.6 177.05 263.99 177.59 235.03C178.03 211.82 188.47 193.41 202.8 186.45Z" id="atXWI4lVn"></path><path d="M163.36 222.01C163.36 222.01 168.26 226.34 171.06 223.4C171.06 223.4 178.79 169.75 187.26 169.66C190.18 169.69 213.49 169.93 216.4 169.96C216.4 169.96 219.86 171.52 221.23 178.02C222.42 181.62 228.36 199.61 239.05 231.99L342.27 235.44L350.47 219.07L265.06 217.7C265.06 217.68 265.05 217.67 265.05 217.66C264.62 216 251.32 164.78 241.85 158.26C241.84 158.26 241.84 158.26 241.83 158.25C241.51 158.02 241.16 157.84 240.79 157.72C240.79 157.72 205.28 152.31 193.51 155.33C193.51 155.33 181.26 157.84 178.2 161.52C178.19 161.53 178.18 161.54 178.18 161.55C177.77 161.96 173.05 167.07 171.34 182.06C169.74 190.05 164.96 214.02 163.36 222.01Z" id="e42EyOtzYx"></path><path d="M163.34 223.01C163.34 223.01 168.24 227.33 171.04 224.4C171.04 224.4 178.77 170.74 187.24 170.65C190.16 170.68 213.47 170.93 216.38 170.96C216.38 170.96 219.84 172.51 221.21 179.02C222.4 182.61 228.34 200.61 239.04 232.99L342.26 236.43L350.45 220.06L265.04 218.7C265.04 218.68 265.04 218.66 265.04 218.66C264.6 217 251.3 165.78 241.83 159.26C241.82 159.25 241.82 159.25 241.81 159.25C241.49 159.02 241.14 158.84 240.77 158.71C240.77 158.71 205.26 153.31 193.49 156.33C193.49 156.33 181.24 158.83 178.18 162.51C178.17 162.52 178.17 162.53 178.16 162.54C177.75 162.95 173.03 168.07 171.32 183.06C169.72 191.05 164.94 215.02 163.34 223.01Z" id="el4qYPgfH"></path><path d="M163.34 223.01C163.34 223.01 168.24 227.33 171.04 224.4C171.04 224.4 178.77 170.74 187.24 170.65C190.16 170.68 213.47 170.93 216.38 170.96C216.38 170.96 219.84 172.51 221.21 179.02C222.4 182.61 228.34 200.61 239.04 232.99L342.26 236.43L350.45 220.06L265.04 218.7C265.04 218.68 265.04 218.66 265.04 218.66C264.6 217 251.3 165.78 241.83 159.26C241.82 159.25 241.82 159.25 241.81 159.25C241.49 159.02 241.14 158.84 240.77 158.71C240.77 158.71 205.26 153.31 193.49 156.33C193.49 156.33 181.24 158.83 178.18 162.51C178.17 162.52 178.17 162.53 178.16 162.54C177.75 162.95 173.03 168.07 171.32 183.06C169.72 191.05 164.94 215.02 163.34 223.01Z" id="asHynojd9"></path><path d="M250.41 228.88C251.38 228.21 256.26 224.81 265.04 218.7C265.04 218.68 265.04 218.66 265.04 218.66C264.6 217 251.29 165.72 241.81 159.25C235.56 160.19 226.06 162.2 227.69 165.44C230.09 170.22 245.86 216.2 250.41 228.88Z" id="bpNGT1B9Q"></path><path d="M256.08 139.33L267.06 177.89L328.09 177.3C327.73 180.73 327.53 182.64 327.49 183.02C327.49 183.02 279.55 189.09 259.31 179.24C258.63 176.89 255.2 165.15 249.02 144.01L152.74 142.69L171.16 138.72L256.08 139.33Z" id="b2eJnQvwT"></path><path d="M256.08 139.33L267.06 177.89L328.09 177.3C327.73 180.73 327.53 182.64 327.49 183.02C327.49 183.02 279.55 189.09 259.31 179.24C258.63 176.89 255.2 165.15 249.02 144.01L152.74 142.69L171.16 138.72L256.08 139.33Z" id="b1AEg98lcD"></path><path d="M540.94 205.15C540.94 205.15 573.33 222.2 548.8 237.18C548.15 237.31 542.95 238.41 542.3 238.55C542.3 238.55 566.36 221.9 527 204.88C529.79 204.94 538.15 205.09 540.94 205.15Z" id="f3dhkStcdg"></path><path d="M539.95 205.13C539.95 205.13 572.33 222.18 547.81 237.16C547.16 237.3 541.96 238.39 541.31 238.53C541.31 238.53 565.37 221.88 526 204.87C528.79 204.92 537.16 205.08 539.95 205.13Z" id="b1KppTAnO6"></path><path d="M201.47 208.53C211.51 208.72 219.39 222.81 219.06 240C218.74 257.19 210.34 270.97 200.3 270.78C190.26 270.59 182.39 256.5 182.71 239.31C183.03 222.12 191.44 208.34 201.47 208.53Z" id="c3v7VVxG7J"></path><path d="M201.96 215.12C209.26 215.25 214.96 226.66 214.7 240.59C214.44 254.52 208.31 265.7 201.01 265.56C193.71 265.42 188.01 254.02 188.27 240.09C188.54 226.16 194.67 214.98 201.96 215.12Z" id="d1IG05u4e4"></path><path d="M201.98 214.12C209.28 214.26 214.98 225.66 214.72 239.59C214.46 253.52 208.33 264.7 201.03 264.57C193.73 264.43 188.03 253.02 188.29 239.09C188.55 225.16 194.68 213.98 201.98 214.12Z" id="a3AuPlGGQK"></path><path d="M199.49 219.26C200.35 219.28 201.02 220.69 200.99 222.4C200.96 224.12 200.23 225.5 199.37 225.49C198.51 225.47 197.83 224.06 197.87 222.35C197.9 220.63 198.62 219.25 199.49 219.26Z" id="a51TFQxbHE"></path><path d="M192.73 246.38C193.59 246.39 194.26 247.8 194.23 249.52C194.2 251.24 193.47 252.62 192.61 252.6C191.75 252.59 191.08 251.18 191.11 249.46C191.14 247.74 191.87 246.36 192.73 246.38Z" id="b2EimFkpnK"></path><path d="M209.81 233.73C210.67 233.74 211.35 235.15 211.31 236.87C211.28 238.59 210.55 239.97 209.69 239.95C208.83 239.94 208.16 238.53 208.19 236.81C208.22 235.09 208.95 233.71 209.81 233.73Z" id="a5IGifjFJ"></path><path d="M204.9 251.8C205.76 251.81 206.43 253.22 206.4 254.94C206.37 256.66 205.64 258.04 204.78 258.02C203.92 258 203.24 256.6 203.28 254.88C203.31 253.16 204.03 251.78 204.9 251.8Z" id="b5DrMSVwi7"></path><path d="M190.82 229.48C191.68 229.49 192.35 230.9 192.32 232.62C192.29 234.34 191.56 235.72 190.7 235.7C189.84 235.68 189.16 234.28 189.2 232.56C189.23 230.84 189.95 229.46 190.82 229.48Z" id="a21wkW9JqJ"></path><path d="M199.23 232.88C201.75 232.93 203.74 236.27 203.66 240.36C203.58 244.44 201.48 247.71 198.95 247.66C196.43 247.61 194.44 244.27 194.52 240.18C194.59 236.1 196.7 232.83 199.23 232.88Z" id="addz7nEvt"></path><path d="M467.42 106.21C467.42 106.21 412.11 107.15 340.03 125.47C340.03 125.47 467.42 106.21 467.42 106.21Z" id="i30BdeMwah"></path><path d="M206.88 8.93C206.02 10.84 205.38 12.84 204.97 14.9C204.97 14.9 201.94 16.4 202.15 11.24C202.37 6.08 205.53 4.46 205.53 4.46C205.8 5.35 208.52 5 206.88 8.93Z" id="b6pCzesut"></path><path d="M316.89 315.83C316.86 315.04 316.23 314.41 315.45 314.38C314.62 314.41 313.97 315.1 314 315.93C314.03 316.72 314.66 317.35 315.45 317.38C316.27 317.35 316.92 316.65 316.89 315.83Z" id="bhMeofzFu"></path><path d="M684.57 451.22C684.57 452.96 676.22 454.37 665.91 454.37C655.61 454.37 647.25 452.96 647.25 451.22C647.25 449.48 655.61 448.07 665.91 448.07C676.22 448.07 684.57 449.48 684.57 451.22Z" id="b2QXRiBcs"></path><path d="M667.23 433.95C667.23 433.95 683.6 428.94 684.4 432.6C684.4 432.6 700.4 450.82 688.38 450.92C688.38 450.92 660.46 449.05 657.26 447.1C654.05 445.15 653.38 436.56 653.38 436.56C656.15 436.04 664.02 436.24 667.23 433.95Z" id="e1NRsGDT1R"></path><path d="M657.47 445.82C655.03 444.34 654.06 439.01 653.73 436.55C653.51 436.56 653.38 436.56 653.38 436.56C653.38 436.56 654.05 445.15 657.26 447.1C660.46 449.05 676.36 451.02 688.38 450.92C691.85 450.89 693.05 449.66 692.98 447.83C692.5 448.93 691.17 449.62 688.59 449.64C676.58 449.74 660.67 447.77 657.47 445.82Z" id="b46KCLB54"></path><path d="M788.5 414.47C788.5 415.81 782.07 416.89 774.14 416.89C766.21 416.89 759.78 415.81 759.78 414.47C759.78 413.12 766.21 412.04 774.14 412.04C782.07 412.04 788.5 413.12 788.5 414.47Z" id="c2zryif2Xk"></path><path d="M775.16 401.18C775.16 401.18 787.75 397.32 788.37 400.14C788.37 400.14 800.68 414.16 791.43 414.23C791.43 414.23 769.94 412.79 767.48 411.29C765.02 409.79 764.5 403.19 764.5 403.19C766.63 402.78 772.69 402.93 775.16 401.18Z" id="a2lwSWovRj"></path><path d="M767.64 410.31C765.77 409.17 765.02 405.07 764.77 403.18C764.6 403.18 764.5 403.19 764.5 403.19C764.5 403.19 765.02 409.79 767.48 411.29C769.94 412.79 782.18 414.31 791.43 414.23C794.1 414.21 795.02 413.26 794.97 411.86C794.6 412.71 793.58 413.24 791.59 413.25C782.35 413.33 770.11 411.81 767.64 410.31Z" id="c22S44lEkB"></path><path d="M743.27 567.92C743.27 571.12 727.92 573.71 708.99 573.71C690.06 573.71 674.71 571.12 674.71 567.92C674.71 564.72 690.06 562.13 708.99 562.13C727.92 562.13 743.27 564.72 743.27 567.92Z" id="c80TF7j9F5"></path><path d="M711.42 536.2C711.42 536.2 741.49 526.99 742.96 533.72C742.96 533.72 772.34 567.19 750.26 567.37C750.26 567.37 698.97 563.93 693.09 560.35C687.21 556.76 685.97 540.99 685.97 540.99C691.06 540.03 705.52 540.39 711.42 536.2Z" id="f3dsIUA3x7"></path><path d="M693.48 558C689.01 555.27 687.22 545.48 686.62 540.97C686.21 540.99 685.97 540.99 685.97 540.99C685.97 540.99 687.21 556.76 693.09 560.35C698.97 563.93 728.19 567.54 750.26 567.37C756.64 567.32 758.84 565.05 758.72 561.69C757.83 563.72 755.4 564.99 750.66 565.02C728.58 565.2 699.37 561.59 693.48 558Z" id="iYBJ47mFU"></path><path d="M981.68 453.19C935.35 453.19 896.73 417.75 892.75 371.6C892.62 370.15 892.53 368.7 892.48 367.23C892.48 367.22 892.48 367.16 892.48 367.15C892.42 365.55 892.43 364.26 892.42 363.94C892.44 314.65 932.41 274.7 981.7 274.72C1030.97 274.74 1070.91 314.67 1070.92 363.94C1070.92 413.23 1030.97 453.19 981.68 453.19Z" id="a8DlabTU7"></path><path d="M981.68 453.19C935.35 453.19 896.73 417.75 892.75 371.6C892.62 370.15 892.53 368.7 892.48 367.23C892.48 367.22 892.48 367.16 892.48 367.15C892.42 365.55 892.43 364.26 892.42 363.94C892.44 314.65 932.41 274.7 981.7 274.72C1030.97 274.74 1070.91 314.67 1070.92 363.94C1070.92 413.23 1030.97 453.19 981.68 453.19Z" id="afx2V4bvB"></path><path d="M981.67 315.26C954.78 315.26 932.99 337.05 932.99 363.94C932.99 390.83 954.78 412.62 981.67 412.62C1008.56 412.62 1030.35 390.83 1030.35 363.94C1030.35 337.05 1008.56 315.26 981.67 315.26Z" id="csBuCNiU"></path><path d="M981.67 334.73C965.54 334.73 952.46 347.81 952.46 363.94C952.46 380.07 965.54 393.15 981.67 393.15C997.8 393.15 1010.88 380.07 1010.88 363.94C1010.88 347.81 997.8 334.73 981.67 334.73Z" id="a5C9XXjbNp"></path><path d="M505.2 453.19C458.88 453.2 420.25 417.75 416.28 371.6C416.15 370.15 416.05 368.7 416.01 367.23C416.01 367.22 416.01 367.16 416.01 367.15C415.94 365.55 415.95 364.26 415.94 363.94C415.96 314.65 455.93 274.7 505.22 274.72C554.49 274.74 594.43 314.67 594.45 363.94C594.45 413.23 554.49 453.19 505.2 453.19Z" id="c2c1srGkFv"></path><path d="M505.2 453.19C458.88 453.2 420.25 417.75 416.28 371.6C416.15 370.15 416.05 368.7 416.01 367.23C416.01 367.22 416.01 367.16 416.01 367.15C415.94 365.55 415.95 364.26 415.94 363.94C415.96 314.65 455.93 274.7 505.22 274.72C554.49 274.74 594.43 314.67 594.45 363.94C594.45 413.23 554.49 453.19 505.2 453.19Z" id="a1z9Py6wbV"></path><path d="M505.19 315.26C478.31 315.26 456.51 337.05 456.51 363.94C456.51 390.83 478.31 412.62 505.19 412.62C532.08 412.62 553.87 390.83 553.87 363.94C553.87 337.05 532.08 315.26 505.19 315.26Z" id="bTjSk5ASv"></path><path d="M505.19 334.73C489.06 334.73 475.98 347.81 475.98 363.94C475.98 380.07 489.06 393.15 505.19 393.15C521.32 393.15 534.4 380.07 534.4 363.94C534.4 347.81 521.32 334.73 505.19 334.73Z" id="b1WMF3v0ee"></path><path d="M1098.76 347.22L1068.98 345.92L1041.79 295.43L945.98 287.66L899.37 348.51L901.96 365.34L895.48 380.88L591.21 383.47L591.21 375.7L588.62 375.7L586.03 364.05L609.34 364.05L592.5 345.92C556.77 315.62 536.92 298.79 532.94 295.43C532.94 295.43 430.66 298.02 429.36 295.43C429.36 295.43 435.19 266.29 435.19 266.29C438.12 265.43 452.8 261.11 479.21 253.35C569.33 246.35 619.39 242.47 629.41 241.69C662.42 189.25 692.2 164.65 692.2 164.65C717.92 164.65 846.54 164.65 1078.04 164.65L1096.17 257.88L1096.17 258.1L1098.76 347.22Z" id="c7KQFaT7TI"></path><path d="M952.45 281.18C959.7 281.18 1017.71 281.18 1024.96 281.18C1024.96 281.18 1043.09 281.18 1050.85 295.43C1052.84 299.31 1062.77 318.73 1080.63 353.69C1066.65 353.69 1058.88 353.69 1057.33 353.69C1057.33 353.69 1037.91 299.31 1015.9 298.02C1015.9 298.02 956.34 298.02 956.34 298.02C956.34 298.02 943.39 298.02 935.62 313.55C935.62 313.55 901.58 362.94 901.58 362.94C901.58 362.94 873.47 371.82 883.83 353.69C897.55 339.19 922.67 281.18 952.45 281.18Z" id="aXSdoFPi2"></path><path d="M1066.89 342.04L1066.39 380.88L1115.59 369.23L1115.59 342.04L1115.59 342.04L1066.89 342.04Z" id="e2PPvRr1Hf"></path><path d="M411.24 318.73C411.24 318.73 413.83 299.31 431.95 291.54C443.86 290.89 539.16 285.72 551.07 285.07C551.07 285.07 570.49 286.36 580.85 310.96C583.1 314.33 594.32 331.16 614.52 361.46L614.52 369.23C591.99 369.23 579.47 369.23 576.97 369.23C576.97 369.23 558.84 300.61 507.05 303.19C500.83 303.19 451.11 303.19 444.9 303.19C444.9 303.19 430.66 303.19 425.48 326.5C422.63 324.95 414.08 320.29 411.24 318.73Z" id="dqz3vIlpb"></path><path d="M690.91 172.42L1088.4 172.42C1088.4 172.42 1088.4 172.42 1088.4 172.42C1088.4 164.56 1082.03 158.18 1074.16 158.18C1037.26 158.18 742.05 158.18 705.15 158.18C697.28 158.18 690.91 164.56 690.91 172.42C690.91 172.42 690.91 172.42 690.91 172.42C690.91 172.42 690.91 172.42 690.91 172.42Z" id="d2q0aPJ5Vs"></path><path d="M666.1 248.81C661.99 248.81 658.66 245.48 658.66 241.38C658.66 240.34 658.88 239.31 659.3 238.36C661.04 234.44 674.97 203.11 676.71 199.2C682.19 186.85 694.43 178.9 707.94 178.9C714.62 178.9 768.09 178.9 774.77 178.9C779.94 178.9 784.13 183.09 784.13 188.26C784.13 188.26 784.13 188.26 784.13 188.26C784.13 193.51 784.13 235.52 784.13 240.78C784.13 245.22 780.53 248.81 776.09 248.81C776.09 248.81 776.09 248.81 776.09 248.81C776.09 248.81 677.1 248.81 666.1 248.81Z" id="b77cTKwT9o"></path><path d="M914.55 178.9C918.24 178.9 920.08 180.74 920.08 184.43C920.08 219.74 920.08 239.36 920.08 243.28C920.08 246.97 918.24 248.81 914.55 248.81C856.71 248.81 824.58 248.81 818.15 248.81C814.46 248.81 812.62 246.97 812.62 243.28C812.62 207.97 812.62 188.35 812.62 184.43C812.62 180.74 814.46 178.9 818.15 178.9C875.99 178.9 908.12 178.9 914.55 178.9Z" id="a3R9aw6Gtd"></path><path d="M1096.17 258.1L929.15 260.47L924.8 164.65L1078.04 164.65L1096.17 257.88L1096.17 257.88L1096.17 258.1Z" id="i1kLZQc5ch"></path><path d="M1060.86 178.9C1064.55 178.9 1066.39 180.74 1066.39 184.43C1066.39 219.74 1066.39 239.36 1066.39 243.28C1066.39 246.97 1064.55 248.81 1060.86 248.81C993.7 248.81 956.38 248.81 948.92 248.81C945.23 248.81 943.39 246.97 943.39 243.28C943.39 207.97 943.39 188.35 943.39 184.43C943.39 180.74 945.23 178.9 948.92 178.9C1016.08 178.9 1053.39 178.9 1060.86 178.9Z" id="a3n7zbabsW"></path><path d="M790.14 273.42C791.31 273.42 791.9 274 791.9 275.17C791.9 277.72 791.9 279.14 791.9 279.43C791.9 280.6 791.31 281.18 790.14 281.18C767.39 281.18 754.75 281.18 752.22 281.18C751.05 281.18 750.47 280.6 750.47 279.43C750.47 276.87 750.47 275.46 750.47 275.17C750.47 274 751.05 273.42 752.22 273.42C774.97 273.42 787.61 273.42 790.14 273.42Z" id="dbWPsccqN"></path><path d="M909.26 273.42C910.43 273.42 911.02 274 911.02 275.17C911.02 277.72 911.02 279.14 911.02 279.43C911.02 280.6 910.43 281.18 909.26 281.18C886.51 281.18 873.87 281.18 871.34 281.18C870.17 281.18 869.59 280.6 869.59 279.43C869.59 276.87 869.59 275.46 869.59 275.17C869.59 274 870.17 273.42 871.34 273.42C894.09 273.42 906.73 273.42 909.26 273.42Z" id="hgFnt5vX"></path><path d="M362.35 420.01C363 398.53 325.26 301.4 325.26 301.4C326.38 301.31 335.31 300.64 336.42 300.55C360.78 342.57 369.84 385.74 372.89 417.73C366.7 424.46 362.14 427.11 362.35 420.01Z" id="gqZAiK8TK"></path><path d="M372.44 518.31C344.57 518.31 321.32 496.98 318.93 469.21C318.85 468.34 318.8 467.46 318.77 466.58C318.77 466.57 318.77 466.54 318.77 466.53C318.73 465.57 318.73 464.79 318.73 464.6C318.77 434.94 342.85 410.93 372.51 410.96C402.11 411 426.1 434.99 426.14 464.6C426.14 494.26 402.1 518.31 372.44 518.31Z" id="b1ITxLbjep"></path><path d="M372.44 435.31C356.26 435.31 343.14 448.42 343.14 464.6C343.14 480.78 356.26 493.89 372.44 493.89C388.61 493.89 401.73 480.78 401.73 464.6C401.73 448.42 388.61 435.31 372.44 435.31Z" id="htw9aoLiW"></path><path d="M372.44 447.02C362.73 447.02 354.86 454.89 354.86 464.6C354.86 474.31 362.73 482.18 372.44 482.18C382.14 482.18 390.01 474.31 390.01 464.6C390.01 454.89 382.14 447.02 372.44 447.02Z" id="j4sn3TgDW3"></path><path d="M102.07 365.21C102.07 353.76 102.07 347.39 102.07 346.12C103.23 330.78 118.96 325.39 133.32 323.71C144.52 322.44 155.86 323.29 166.74 326.21C194.18 333.48 211.68 334.89 220.27 335.02C224.17 335.08 227.49 337.87 228.21 341.7C228.62 343.88 229.03 346.26 229.4 348.6C229.69 350.44 229.96 352.25 230.21 353.93C230.92 358.82 231.4 362.61 231.4 362.61C214.15 362.96 171.04 363.83 102.07 365.21Z" id="abtXHKv5P"></path><path d="M65.92 468.07C61.68 468.11 57.82 465.62 56.12 461.74C54.09 456.9 56.93 453.81 59.95 452C66.13 448.34 70.81 442.61 73.17 435.82C76.04 427.39 78.84 414.12 79.94 393.43C81.07 372.03 88.82 361.45 97.19 356.33C97.19 356.33 97.19 356.33 97.2 356.33C108.01 349.72 119.86 352.2 119.86 352.2C130.76 352.28 217.9 352.98 228.79 353.07C230.73 353.95 232.52 355.12 234.11 356.54C243.82 365.57 229.66 377.37 229.66 377.37C199.28 409.48 222.28 442.03 222.28 442.03C227.86 442.03 272.44 442.03 278.02 442.03C288.43 442.08 298.62 438.97 307.21 433.09C314.75 427.89 317.66 422.85 318.79 419.81C319.65 417.48 320.52 415.15 321.56 412.9C336.18 381.19 318.55 329.61 310.94 310.32C309.05 305.52 307.78 302.72 307.78 302.72C308.95 302.63 314.77 302.19 325.26 301.4L336.31 300.56C336.38 300.56 336.42 300.55 336.42 300.55C360.78 342.57 369.84 385.74 372.89 417.73C373.17 420.74 373.41 423.67 373.6 426.47C374.99 448 358.67 466.59 337.14 467.99C336.29 468.04 335.43 468.07 334.57 468.07C280.84 468.07 92.78 468.07 65.92 468.07Z" id="obiOkaGm9"></path><path d="M102.07 353.93L102.07 348.6C178.47 348.6 220.91 348.6 229.4 348.6C229.69 350.44 229.96 352.25 230.21 353.93C213.13 353.93 170.41 353.93 102.07 353.93Z" id="a12ocXIgdf"></path><path d="M98.22 356.54C97.87 356.54 97.52 356.47 97.2 356.33C108.01 349.72 119.86 352.2 119.86 352.2C130.76 352.28 217.9 352.98 228.79 353.07C230.73 353.95 232.52 355.12 234.11 356.54C206.93 356.54 111.81 356.54 98.22 356.54Z" id="a174daCK62"></path><path d="M235.24 349.91C237.02 349.91 237.91 350.79 237.91 352.57C237.91 352.57 237.91 352.57 237.91 352.57C237.91 354.35 237.02 355.24 235.24 355.24C124.51 355.24 62.98 355.24 50.68 355.24C48.9 355.24 48.02 354.35 48.02 352.57C48.02 352.57 48.02 352.57 48.02 352.57C48.02 350.79 48.9 349.91 50.68 349.91C161.42 349.91 222.94 349.91 235.24 349.91Z" id="k2XrJB62u0"></path><path d="M362.35 420.01C363 398.53 325.26 301.4 325.26 301.4C326.38 301.31 335.31 300.64 336.42 300.55C360.78 342.57 369.84 385.74 372.89 417.73C366.7 424.46 362.14 427.11 362.35 420.01Z" id="c1j995givx"></path><path d="M401.7 463.25C396.25 464.05 391.18 464.63 390.01 464.78C380.03 465.97 368.49 467 355.15 467.8C349.49 468.14 344.57 468.35 343.39 468.42C335.77 468.76 327.62 469.02 318.93 469.21L318.77 466.58C318.77 466.55 318.77 466.54 318.77 466.53C330.91 461.63 350.01 448.55 353.09 414.49C380.78 403.82 411.88 417.62 422.55 445.31C424.21 449.62 425.31 454.12 425.82 458.72C419.41 460.25 411.48 461.81 401.7 463.25Z" id="dXeEUzSco"></path><path d="M349.07 367.45C349.07 367.45 379.54 395.37 398.48 410.89C417.43 426.42 451.2 447.81 451.2 447.81C451.2 447.81 431.03 466.66 308.65 468.07C316.73 447.95 370.3 461.39 349.07 367.45Z" id="b186uZdivV"></path><path d="M349.07 367.45C349.07 367.45 379.54 395.37 398.48 410.89C417.43 426.42 451.2 447.81 451.2 447.81C451.2 447.81 431.03 466.66 308.65 468.07C316.73 447.95 370.3 461.39 349.07 367.45Z" id="cEWpARyRd"></path><path d="M143.95 410.89C114.29 410.89 90.24 434.94 90.24 464.6C90.24 494.26 114.29 518.31 143.95 518.31C173.61 518.31 197.65 494.26 197.65 464.6C197.65 434.94 173.61 410.89 143.95 410.89Z" id="f277Fg2Wli"></path><path d="M143.95 435.31C127.77 435.31 114.65 448.42 114.65 464.6C114.65 480.78 127.77 493.89 143.95 493.89C160.13 493.89 173.24 480.78 173.24 464.6C173.24 448.42 160.13 435.31 143.95 435.31Z" id="cnVVjsjUO"></path><path d="M143.95 447.02C134.24 447.02 126.37 454.89 126.37 464.6C126.37 474.31 134.24 482.18 143.95 482.18C153.66 482.18 161.53 474.31 161.53 464.6C161.53 454.89 153.66 447.02 143.95 447.02Z" id="l4tiH7VjNT"></path><path d="M142.65 385.67C108.67 385.67 81.13 413.79 81.13 448.47C81.13 449.94 81.18 451.39 81.28 452.82C93.55 452.82 191.74 452.82 204.02 452.82C204.11 451.39 204.16 449.94 204.16 448.47C204.16 413.79 176.62 385.67 142.65 385.67Z" id="d2ely34ob4"></path><path d="M142.65 386.92C109.93 386.92 83.41 413.99 83.41 447.39C83.41 448.8 83.46 450.2 83.55 451.58C95.37 451.58 189.92 451.58 201.74 451.58C201.84 450.2 201.89 448.8 201.89 447.39C201.89 413.99 175.36 386.92 142.65 386.92Z" id="f2Bm8yHYQ3"></path><path d="M201.81 450.28C201.8 450.71 201.77 451.14 201.74 451.58C189.92 451.58 95.37 451.58 83.55 451.58C83.53 451.14 83.5 450.71 83.48 450.28C83.43 449.32 83.41 448.36 83.41 447.39C83.41 413.99 109.93 386.92 142.65 386.92C175.37 386.92 201.89 413.99 201.89 447.39C201.89 448.36 201.86 449.32 201.81 450.28Z" id="c10QFOsHTS"></path><path d="M201.81 450.28C201.8 450.71 201.77 451.14 201.74 451.58C189.92 451.58 95.37 451.58 83.55 451.58C83.53 451.14 83.5 450.71 83.48 450.28C107.15 450.28 178.15 450.28 201.81 450.28Z" id="bzqdZYyD"></path><path d="M361.31 339.88C365.78 349.77 366.22 359.21 362.3 360.99C358.37 362.76 351.57 356.19 347.1 346.31C342.64 336.43 342.19 326.98 346.12 325.21C350.04 323.43 356.84 330 361.31 339.88Z" id="bbSmgXZpZR"></path><path d="M361.96 339.23C366.43 349.11 366.87 358.56 362.95 360.34C359.03 362.11 352.22 355.54 347.76 345.66C343.29 335.78 342.85 326.33 346.77 324.56C350.69 322.78 357.49 329.35 361.96 339.23Z" id="abfGMCq26"></path><path d="M336.31 300.56L336.31 310.76C324.4 310.76 317.78 310.76 316.46 310.76C314.61 310.76 312.76 310.61 310.94 310.32C309.05 305.52 307.78 302.72 307.78 302.72C308.95 302.63 314.77 302.19 325.26 301.4L336.31 300.56Z" id="ga8OEQU8p"></path><path d="M336.31 309.46C324.4 309.46 317.78 309.46 316.46 309.46C299.02 309.46 284.89 296.41 284.89 280.32C284.89 280.05 284.89 277.88 284.89 277.61C284.89 261.52 299.02 248.47 316.46 248.47C317.78 248.59 324.4 249.2 336.31 250.28L336.31 309.46Z" id="b1q0UVezuN"></path><path d="M308.65 282.81C308.65 282.81 300.27 296.57 287.08 295.26C286.6 292.31 282.76 268.68 282.28 265.73C282.28 265.73 298.07 264.26 303.6 265.73C304.61 269.14 315.48 272.07 308.65 282.81Z" id="m29bY29cdP"></path><path d="M308.69 270.24C310.8 273.17 312.06 277.44 308.65 282.81C308.65 282.81 300.27 296.57 287.08 295.26C286.6 292.31 282.76 268.68 282.28 265.73C287.85 265.22 293.45 265.02 299.04 265.15C302.86 265.3 306.41 267.17 308.69 270.24Z" id="a7jr710ezr"></path><path d="M335.66 250.28C344.47 250.28 351.61 257.42 351.61 266.23C351.61 266.23 351.61 266.23 351.61 266.23C351.61 268.95 351.61 290.78 351.61 293.51C351.61 302.32 344.47 309.46 335.66 309.46C335.66 309.46 335.66 309.46 335.66 309.46L335.66 250.28C335.66 250.28 335.66 250.28 335.66 250.28Z" id="c7aYJSeiw"></path><path d="M336.31 250.28C345.12 250.28 352.26 257.42 352.26 266.23C352.26 268.95 352.26 290.78 352.26 293.51C352.26 302.32 345.12 309.46 336.31 309.46C336.31 309.46 336.31 309.46 336.31 309.46L336.31 250.28C336.31 250.28 336.31 250.28 336.31 250.28Z" id="a394W6F9Qt"></path><path d="M294.1 281.09C294.1 289.95 288.19 297.14 280.91 297.14C273.62 297.14 267.72 289.95 267.72 281.09C267.72 272.23 273.62 265.04 280.91 265.04C288.19 265.04 294.1 272.23 294.1 281.09Z" id="auTSxxBSa"></path><path d="M60.56 246.55C60.56 246.55 60.56 246.55 60.56 246.55C60.56 311.29 60.56 347.25 60.56 354.45C60.56 354.45 60.56 354.45 60.56 354.45C56.36 354.45 54.03 354.45 53.56 354.45C53.56 354.45 53.56 354.45 53.56 354.45C53.56 289.71 53.56 253.74 53.56 246.55C53.56 246.55 53.56 246.55 53.56 246.55C57.76 246.55 60.09 246.55 60.56 246.55Z" id="bPDT0SAV8"></path><path d="M53.56 246.55C53.56 246.55 27.59 247.54 22.59 249.54C22.59 249.54 2.61 250.54 2.61 250.54C2.61 253.34 2.61 275.72 2.61 278.52C2.61 278.52 19.59 274.52 28.59 277.52C28.59 277.52 56.56 273.52 56.56 273.52C55.96 268.13 54.16 251.94 53.56 246.55Z" id="h6wLQl884u"></path></defs><g><g><g><use xlink:href="#b2uVrzBwgM" opacity="1" fill="#6b94af" fill-opacity="1"></use><g><use xlink:href="#b2uVrzBwgM" opacity="1" fill-opacity="0" stroke="#000000" stroke-width="1" stroke-opacity="0"></use></g></g><g><use xlink:href="#bg1WDwjNG" opacity="1" fill="#65617d" fill-opacity="1"></use><g><use xlink:href="#bg1WDwjNG" opacity="1" fill-opacity="0" stroke="#000000" stroke-width="1" stroke-opacity="0"></use></g></g><g><use xlink:href="#c4bvmbUWi2" opacity="1" fill="#dce0ed" fill-opacity="1"></use><g><use xlink:href="#c4bvmbUWi2" opacity="1" fill-opacity="0" stroke="#000000" stroke-width="1" stroke-opacity="0"></use></g></g><g><use xlink:href="#c2kjBuXpGY" opacity="1" fill="#000000" fill-opacity="1"></use><g><use xlink:href="#c2kjBuXpGY" opacity="1" fill-opacity="0" stroke="#000000" stroke-width="1" stroke-opacity="0"></use></g></g><g><use xlink:href="#c1ttWaauxp" opacity="1" fill="#dce0ed" fill-opacity="1"></use><g><use xlink:href="#c1ttWaauxp" opacity="1" fill-opacity="0" stroke="#000000" stroke-width="1" stroke-opacity="0"></use></g></g><g><use xlink:href="#b2AyJeu8iR" opacity="1" fill="#f0f0f4" fill-opacity="1"></use><g><use xlink:href="#b2AyJeu8iR" opacity="1" fill-opacity="0" stroke="#000000" stroke-width="1" stroke-opacity="0"></use></g></g><g><use xlink:href="#e1j8AKlDLr" opacity="1" fill="#dce0ed" fill-opacity="1"></use><g><use xlink:href="#e1j8AKlDLr" opacity="1" fill-opacity="0" stroke="#000000" stroke-width="1" stroke-opacity="0"></use></g></g><g><use xlink:href="#a4Zfyensi" opacity="1" fill="#000000" fill-opacity="1"></use><g><use xlink:href="#a4Zfyensi" opacity="1" fill-opacity="0" stroke="#000000" stroke-width="1" stroke-opacity="0"></use></g></g><g><use xlink:href="#a1yL1pRLDk" opacity="1" fill="#dce0ed" fill-opacity="1"></use><g><use xlink:href="#a1yL1pRLDk" opacity="1" fill-opacity="0" stroke="#000000" stroke-width="1" stroke-opacity="0"></use></g></g><g><use xlink:href="#clNgJwi3w" opacity="1" fill="#f0f0f4" fill-opacity="1"></use><g><use xlink:href="#clNgJwi3w" opacity="1" fill-opacity="0" stroke="#000000" stroke-width="1" stroke-opacity="0"></use></g></g><g><use xlink:href="#a4XsmIMQl" opacity="1" fill="#dce0ed" fill-opacity="1"></use><g><use xlink:href="#a4XsmIMQl" opacity="1" fill-opacity="0" stroke="#000000" stroke-width="1" stroke-opacity="0"></use></g></g><g><use xlink:href="#acofg8NzB" opacity="1" fill="#636780" fill-opacity="1"></use><g><use xlink:href="#acofg8NzB" opacity="1" fill-opacity="0" stroke="#000000" stroke-width="1" stroke-opacity="0"></use></g></g><g><use xlink:href="#c2CR9fsZ5f" opacity="1" fill="#000000" fill-opacity="1"></use><g><use xlink:href="#c2CR9fsZ5f" opacity="1" fill-opacity="0" stroke="#000000" stroke-width="1" stroke-opacity="0"></use></g></g><g><use xlink:href="#b1CWQtgtCy" opacity="1" fill="#636780" fill-opacity="1"></use><g><use xlink:href="#b1CWQtgtCy" opacity="1" fill-opacity="0" stroke="#000000" stroke-width="1" stroke-opacity="0"></use></g></g><g><use xlink:href="#g8D3cgzPUx" opacity="1" fill="#000000" fill-opacity="1"></use><g><use xlink:href="#g8D3cgzPUx" opacity="1" fill-opacity="0" stroke="#000000" stroke-width="1" stroke-opacity="0"></use></g></g><g><use xlink:href="#a1WPQ9JfmE" opacity="1" fill="#65617d" fill-opacity="1"></use><g><use xlink:href="#a1WPQ9JfmE" opacity="1" fill-opacity="0" stroke="#000000" stroke-width="1" stroke-opacity="0"></use></g></g><g><use xlink:href="#f514fP2wc4" opacity="1" fill="#000000" fill-opacity="1"></use><g><use xlink:href="#f514fP2wc4" opacity="1" fill-opacity="0" stroke="#000000" stroke-width="1" stroke-opacity="0"></use></g></g><g><use xlink:href="#aO8W9Rvor" opacity="1" fill="#65617d" fill-opacity="1"></use><g><use xlink:href="#aO8W9Rvor" opacity="1" fill-opacity="0" stroke="#000000" stroke-width="1" stroke-opacity="0"></use></g></g><g><use xlink:href="#c5Zb4r1h4O" opacity="1" fill="#65617d" fill-opacity="1"></use><g><use xlink:href="#c5Zb4r1h4O" opacity="1" fill-opacity="0" stroke="#000000" stroke-width="1" stroke-opacity="0"></use></g></g><g><use xlink:href="#b5dn5wnlXA" opacity="1" fill="#000000" fill-opacity="1"></use><g><use xlink:href="#b5dn5wnlXA" opacity="1" fill-opacity="0" stroke="#000000" stroke-width="1" stroke-opacity="0"></use></g></g><g><use xlink:href="#d3ZuC2jOR0" opacity="1" fill="#65617d" fill-opacity="1"></use><g><use xlink:href="#d3ZuC2jOR0" opacity="1" fill-opacity="0" stroke="#000000" stroke-width="1" stroke-opacity="0"></use></g></g><g><use xlink:href="#e5tC9rUdnx" opacity="1" fill="#000000" fill-opacity="1"></use><g><use xlink:href="#e5tC9rUdnx" opacity="1" fill-opacity="0" stroke="#000000" stroke-width="1" stroke-opacity="0"></use></g></g><g><use xlink:href="#ak1WOYMQ" opacity="1" fill="#000000" fill-opacity="1"></use><g><use xlink:href="#ak1WOYMQ" opacity="1" fill-opacity="0" stroke="#000000" stroke-width="1" stroke-opacity="0"></use></g></g><g><use xlink:href="#b2RZfy5Rcu" opacity="1" fill="#dce0ed" fill-opacity="1"></use><g><use xlink:href="#b2RZfy5Rcu" opacity="1" fill-opacity="0" stroke="#000000" stroke-width="1" stroke-opacity="0"></use></g></g><g><use xlink:href="#d9ejjGDIt" opacity="1" fill="#dce0ed" fill-opacity="1"></use><g><use xlink:href="#d9ejjGDIt" opacity="1" fill-opacity="0" stroke="#000000" stroke-width="1" stroke-opacity="0"></use></g></g><g><use xlink:href="#f18J3h8PvR" opacity="1" fill="#000000" fill-opacity="1"></use><g><use xlink:href="#f18J3h8PvR" opacity="1" fill-opacity="0" stroke="#000000" stroke-width="1" stroke-opacity="0"></use></g></g><g><use xlink:href="#dwR9Jxjbx" opacity="1" fill="#000000" fill-opacity="1"></use><g><use xlink:href="#dwR9Jxjbx" opacity="1" fill-opacity="0" stroke="#000000" stroke-width="1" stroke-opacity="0"></use></g></g><g><use xlink:href="#bxVE49N5P" opacity="1" fill="#dce0ed" fill-opacity="1"></use><g><use xlink:href="#bxVE49N5P" opacity="1" fill-opacity="0" stroke="#000000" stroke-width="1" stroke-opacity="0"></use></g></g><g><use xlink:href="#boNaWmrwF" opacity="1" fill="#65617d" fill-opacity="1"></use><g><use xlink:href="#boNaWmrwF" opacity="1" fill-opacity="0" stroke="#000000" stroke-width="1" stroke-opacity="0"></use></g></g><g><use xlink:href="#k4gPuWlMM" opacity="1" fill="#000000" fill-opacity="1"></use><g><use xlink:href="#k4gPuWlMM" opacity="1" fill-opacity="0" stroke="#000000" stroke-width="1" stroke-opacity="0"></use></g></g><g><use xlink:href="#aNbog7Ikj" opacity="1" fill="#65617d" fill-opacity="1"></use><g><use xlink:href="#aNbog7Ikj" opacity="1" fill-opacity="0" stroke="#000000" stroke-width="1" stroke-opacity="0"></use></g></g><g><use xlink:href="#cxQWnKcQm" opacity="1" fill="#65617d" fill-opacity="1"></use><g><use xlink:href="#cxQWnKcQm" opacity="1" fill-opacity="0" stroke="#000000" stroke-width="1" stroke-opacity="0"></use></g></g><g><use xlink:href="#a4EisgruZp" opacity="1" fill="#000000" fill-opacity="1"></use><g><use xlink:href="#a4EisgruZp" opacity="1" fill-opacity="0" stroke="#000000" stroke-width="1" stroke-opacity="0"></use></g></g><g><use xlink:href="#fgrTdfSdL" opacity="1" fill="#65617d" fill-opacity="1"></use><g><use xlink:href="#fgrTdfSdL" opacity="1" fill-opacity="0" stroke="#000000" stroke-width="1" stroke-opacity="0"></use></g></g><g><use xlink:href="#fUPdfVWD" opacity="1" fill="#ffffff" fill-opacity="1"></use><g><use xlink:href="#fUPdfVWD" opacity="1" fill-opacity="0" stroke="#000000" stroke-width="1" stroke-opacity="0"></use></g></g><g><use xlink:href="#d35xSuDua0" opacity="1" fill="#dce0ed" fill-opacity="1"></use><g><use xlink:href="#d35xSuDua0" opacity="1" fill-opacity="0" stroke="#000000" stroke-width="1" stroke-opacity="0"></use></g></g><g><use xlink:href="#iaEuXGOcg" opacity="1" fill="#000000" fill-opacity="1"></use><g><use xlink:href="#iaEuXGOcg" opacity="1" fill-opacity="0" stroke="#000000" stroke-width="1" stroke-opacity="0"></use></g></g><g><use xlink:href="#g2LexRqY5t" opacity="1" fill="#636780" fill-opacity="1"></use><g><use xlink:href="#g2LexRqY5t" opacity="1" fill-opacity="0" stroke="#000000" stroke-width="1" stroke-opacity="0"></use></g></g><g><use xlink:href="#c3cWGG0mQt" opacity="1" fill="#636780" fill-opacity="1"></use><g><use xlink:href="#c3cWGG0mQt" opacity="1" fill-opacity="0" stroke="#000000" stroke-width="1" stroke-opacity="0"></use></g></g><g><use xlink:href="#c8iJ8Vki8Q" opacity="1" fill="#6b94af" fill-opacity="1"></use><g><use xlink:href="#c8iJ8Vki8Q" opacity="1" fill-opacity="0" stroke="#000000" stroke-width="1" stroke-opacity="0"></use></g></g><g><use xlink:href="#bu5Zgh3fp" opacity="1" fill="#65617d" fill-opacity="1"></use><g><use xlink:href="#bu5Zgh3fp" opacity="1" fill-opacity="0" stroke="#000000" stroke-width="1" stroke-opacity="0"></use></g></g><g><use xlink:href="#a1badQD1nB" opacity="1" fill="#000000" fill-opacity="1"></use><g><use xlink:href="#a1badQD1nB" opacity="1" fill-opacity="0" stroke="#000000" stroke-width="1" stroke-opacity="0"></use></g></g><g><use xlink:href="#a1GaePeWUP" opacity="1" fill="#636780" fill-opacity="1"></use><g><use xlink:href="#a1GaePeWUP" opacity="1" fill-opacity="0" stroke="#000000" stroke-width="1" stroke-opacity="0"></use></g></g><g><use xlink:href="#a194A966IN" opacity="1" fill="#000000" fill-opacity="1"></use><g><use xlink:href="#a194A966IN" opacity="1" fill-opacity="0" stroke="#000000" stroke-width="1" stroke-opacity="0"></use></g></g><g><use xlink:href="#b5tBcG5sJ4" opacity="1" fill="#6b94af" fill-opacity="1"></use><g><use xlink:href="#b5tBcG5sJ4" opacity="1" fill-opacity="0" stroke="#000000" stroke-width="1" stroke-opacity="0"></use></g></g><g><use xlink:href="#bMYli7Iaq" opacity="1" fill="#65617d" fill-opacity="1"></use><g><use xlink:href="#bMYli7Iaq" opacity="1" fill-opacity="0" stroke="#000000" stroke-width="1" stroke-opacity="0"></use></g></g><g><use xlink:href="#c7ikp4x5Mk" opacity="1" fill="#65617d" fill-opacity="1"></use><g><use xlink:href="#c7ikp4x5Mk" opacity="1" fill-opacity="0" stroke="#000000" stroke-width="1" stroke-opacity="0"></use></g></g><g><use xlink:href="#f88eLEA9i" opacity="1" fill="#000000" fill-opacity="1"></use><g><use xlink:href="#f88eLEA9i" opacity="1" fill-opacity="0" stroke="#000000" stroke-width="1" stroke-opacity="0"></use></g></g><g><use xlink:href="#d13nOnXvtC" opacity="1" fill="#636780" fill-opacity="1"></use><g><use xlink:href="#d13nOnXvtC" opacity="1" fill-opacity="0" stroke="#000000" stroke-width="1" stroke-opacity="0"></use></g></g><g><use xlink:href="#afz2kNNcN" opacity="1" fill="#000000" fill-opacity="1"></use><g><use xlink:href="#afz2kNNcN" opacity="1" fill-opacity="0" stroke="#000000" stroke-width="1" stroke-opacity="0"></use></g></g><g><use xlink:href="#dtoOmR2Fi" opacity="1" fill="#65617d" fill-opacity="1"></use><g><use xlink:href="#dtoOmR2Fi" opacity="1" fill-opacity="0" stroke="#000000" stroke-width="1" stroke-opacity="0"></use></g></g><g><use xlink:href="#b2yLwi0UMZ" opacity="1" fill="#ffffff" fill-opacity="1"></use><g><use xlink:href="#b2yLwi0UMZ" opacity="1" fill-opacity="0" stroke="#000000" stroke-width="1" stroke-opacity="0"></use></g></g><g><use xlink:href="#b5LqOn4ccE" opacity="1" fill="#65617d" fill-opacity="1"></use><g><use xlink:href="#b5LqOn4ccE" opacity="1" fill-opacity="0" stroke="#000000" stroke-width="1" stroke-opacity="0"></use></g></g><g><use xlink:href="#afwoyaLNl" opacity="1" fill="#000000" fill-opacity="1"></use><g><use xlink:href="#afwoyaLNl" opacity="1" fill-opacity="0" stroke="#000000" stroke-width="1" stroke-opacity="0"></use></g></g><g><use xlink:href="#aT5nCu7MU" opacity="1" fill="#65617d" fill-opacity="1"></use><g><use xlink:href="#aT5nCu7MU" opacity="1" fill-opacity="0" stroke="#000000" stroke-width="1" stroke-opacity="0"></use></g></g><g><use xlink:href="#a2eBt4n9d" opacity="1" fill="#000000" fill-opacity="1"></use><g><use xlink:href="#a2eBt4n9d" opacity="1" fill-opacity="0" stroke="#000000" stroke-width="1" stroke-opacity="0"></use></g></g><g><use xlink:href="#d2LK6b7SHR" opacity="1" fill="#dce0ed" fill-opacity="1"></use><g><use xlink:href="#d2LK6b7SHR" opacity="1" fill-opacity="0" stroke="#000000" stroke-width="1" stroke-opacity="0"></use></g></g><g><use xlink:href="#e3zkBnYook" opacity="1" fill="#f0f0f4" fill-opacity="1"></use><g><use xlink:href="#e3zkBnYook" opacity="1" fill-opacity="0" stroke="#000000" stroke-width="1" stroke-opacity="0"></use></g></g><g><use xlink:href="#emUOsMdl" opacity="1" fill="#000000" fill-opacity="1"></use><g><use xlink:href="#emUOsMdl" opacity="1" fill-opacity="0" stroke="#000000" stroke-width="1" stroke-opacity="0"></use></g></g><g><use xlink:href="#dA8M23ZGD" opacity="1" fill="#dce0ed" fill-opacity="1"></use><g><use xlink:href="#dA8M23ZGD" opacity="1" fill-opacity="0" stroke="#000000" stroke-width="1" stroke-opacity="0"></use></g></g><g><use xlink:href="#g8V1Mqdimf" opacity="1" fill="#f0f0f4" fill-opacity="1"></use><g><use xlink:href="#g8V1Mqdimf" opacity="1" fill-opacity="0" stroke="#000000" stroke-width="1" stroke-opacity="0"></use></g></g><g><use xlink:href="#a4on0vR4Vs" opacity="1" fill="#000000" fill-opacity="1"></use><g><use xlink:href="#a4on0vR4Vs" opacity="1" fill-opacity="0" stroke="#000000" stroke-width="1" stroke-opacity="0"></use></g></g><g><use xlink:href="#a4cDhYLcJp" opacity="1" fill="#65617d" fill-opacity="1"></use><g><use xlink:href="#a4cDhYLcJp" opacity="1" fill-opacity="0" stroke="#000000" stroke-width="1" stroke-opacity="0"></use></g></g><g><use xlink:href="#eKbw4bRv6" opacity="1" fill="#65617d" fill-opacity="1"></use><g><use xlink:href="#eKbw4bRv6" opacity="1" fill-opacity="0" stroke="#000000" stroke-width="1" stroke-opacity="0"></use></g></g><g><use xlink:href="#b5KJcyXUHg" opacity="1" fill="#65617d" fill-opacity="1"></use><g><use xlink:href="#b5KJcyXUHg" opacity="1" fill-opacity="0" stroke="#000000" stroke-width="1" stroke-opacity="0"></use></g></g><g><use xlink:href="#bA05dKb8N" opacity="1" fill="#65617d" fill-opacity="1"></use><g><use xlink:href="#bA05dKb8N" opacity="1" fill-opacity="0" stroke="#000000" stroke-width="1" stroke-opacity="0"></use></g></g><g><use xlink:href="#d1yK9xrMOF" opacity="1" fill="#000000" fill-opacity="1"></use><g><use xlink:href="#d1yK9xrMOF" opacity="1" fill-opacity="0" stroke="#000000" stroke-width="1" stroke-opacity="0"></use></g></g><g><use xlink:href="#j2eOPq1I4y" opacity="1" fill="#dce0ed" fill-opacity="1"></use><g><use xlink:href="#j2eOPq1I4y" opacity="1" fill-opacity="0" stroke="#000000" stroke-width="1" stroke-opacity="0"></use></g></g><g><use xlink:href="#bE82J3oHb" opacity="1" fill="#65617d" fill-opacity="1"></use><g><use xlink:href="#bE82J3oHb" opacity="1" fill-opacity="0" stroke="#000000" stroke-width="1" stroke-opacity="0"></use></g></g><g><use xlink:href="#mlzkICXhw" opacity="1" fill="#000000" fill-opacity="1"></use><g><use xlink:href="#mlzkICXhw" opacity="1" fill-opacity="0" stroke="#000000" stroke-width="1" stroke-opacity="0"></use></g></g><g><use xlink:href="#aSegnMj3R" opacity="1" fill="#65617d" fill-opacity="1"></use><g><use xlink:href="#aSegnMj3R" opacity="1" fill-opacity="0" stroke="#000000" stroke-width="1" stroke-opacity="0"></use></g></g><g><use xlink:href="#a6M3wgfDA" opacity="1" fill="#65617d" fill-opacity="1"></use><g><use xlink:href="#a6M3wgfDA" opacity="1" fill-opacity="0" stroke="#000000" stroke-width="1" stroke-opacity="0"></use></g></g><g><use xlink:href="#a3BLihffJ8" opacity="1" fill="#ffffff" fill-opacity="1"></use><g><use xlink:href="#a3BLihffJ8" opacity="1" fill-opacity="0" stroke="#000000" stroke-width="1" stroke-opacity="0"></use></g></g><g><use xlink:href="#b8AT3G55p" opacity="1" fill="#65617d" fill-opacity="1"></use><g><use xlink:href="#b8AT3G55p" opacity="1" fill-opacity="0" stroke="#000000" stroke-width="1" stroke-opacity="0"></use></g></g><g><use xlink:href="#b78sGAHlKe" opacity="1" fill="#65617d" fill-opacity="1"></use><g><use xlink:href="#b78sGAHlKe" opacity="1" fill-opacity="0" stroke="#000000" stroke-width="1" stroke-opacity="0"></use></g></g><g><use xlink:href="#c4CTld16po" opacity="1" fill="#000000" fill-opacity="1"></use><g><use xlink:href="#c4CTld16po" opacity="1" fill-opacity="0" stroke="#000000" stroke-width="1" stroke-opacity="0"></use></g></g><g><use xlink:href="#bhyhtwUUn" opacity="1" fill="#000000" fill-opacity="1"></use><g><use xlink:href="#bhyhtwUUn" opacity="1" fill-opacity="0" stroke="#000000" stroke-width="1" stroke-opacity="0"></use></g></g><g><use xlink:href="#i79XyAh2sM" opacity="1" fill="#dce0ed" fill-opacity="1"></use><g><use xlink:href="#i79XyAh2sM" opacity="1" fill-opacity="0" stroke="#000000" stroke-width="1" stroke-opacity="0"></use></g></g><g><use xlink:href="#dgw9FEfl" opacity="1" fill="#000000" fill-opacity="1"></use><g><use xlink:href="#dgw9FEfl" opacity="1" fill-opacity="0" stroke="#000000" stroke-width="1" stroke-opacity="0"></use></g></g><g><use xlink:href="#d3dlpVbnRF" opacity="1" fill="#000000" fill-opacity="1"></use><g><use xlink:href="#d3dlpVbnRF" opacity="1" fill-opacity="0" stroke="#000000" stroke-width="1" stroke-opacity="0"></use></g></g><g><use xlink:href="#c2q266QBBR" opacity="1" fill="#dce0ed" fill-opacity="1"></use><g><use xlink:href="#c2q266QBBR" opacity="1" fill-opacity="0" stroke="#000000" stroke-width="1" stroke-opacity="0"></use></g></g><g><use xlink:href="#bf8m36TLs" opacity="1" fill="#dce0ed" fill-opacity="1"></use><g><use xlink:href="#bf8m36TLs" opacity="1" fill-opacity="0" stroke="#000000" stroke-width="1" stroke-opacity="0"></use></g></g><g><use xlink:href="#d1dcEwMae3" opacity="1" fill="#000000" fill-opacity="1"></use><g><use xlink:href="#d1dcEwMae3" opacity="1" fill-opacity="0" stroke="#000000" stroke-width="1" stroke-opacity="0"></use></g></g><g><use xlink:href="#aJSIY16ab" opacity="1" fill="#000000" fill-opacity="1"></use><g><use xlink:href="#aJSIY16ab" opacity="1" fill-opacity="0" stroke="#000000" stroke-width="1" stroke-opacity="0"></use></g></g><g><use xlink:href="#a1bx6aKxCn" opacity="1" fill="#000000" fill-opacity="1"></use><g><use xlink:href="#a1bx6aKxCn" opacity="1" fill-opacity="0" stroke="#000000" stroke-width="1" stroke-opacity="0"></use></g></g><g><use xlink:href="#avakhVXZz" opacity="1" fill="#dce0ed" fill-opacity="1"></use><g><use xlink:href="#avakhVXZz" opacity="1" fill-opacity="0" stroke="#000000" stroke-width="1" stroke-opacity="0"></use></g></g><g><use xlink:href="#g2hxB3cEVM" opacity="1" fill="#dce0ed" fill-opacity="1"></use><g><use xlink:href="#g2hxB3cEVM" opacity="1" fill-opacity="0" stroke="#000000" stroke-width="1" stroke-opacity="0"></use></g></g><g><use xlink:href="#a58t9byvdW" opacity="1" fill="#000000" fill-opacity="1"></use><g><use xlink:href="#a58t9byvdW" opacity="1" fill-opacity="0" stroke="#000000" stroke-width="1" stroke-opacity="0"></use></g></g><g><use xlink:href="#b21dBaCMpp" opacity="1" fill="#dce0ed" fill-opacity="1"></use><g><use xlink:href="#b21dBaCMpp" opacity="1" fill-opacity="0" stroke="#000000" stroke-width="1" stroke-opacity="0"></use></g></g><g><use xlink:href="#bfbzAcmsT" opacity="1" fill="#636780" fill-opacity="1"></use><g><use xlink:href="#bfbzAcmsT" opacity="1" fill-opacity="0" stroke="#000000" stroke-width="1" stroke-opacity="0"></use></g></g><g><use xlink:href="#fR0W9voZY" opacity="1" fill="#000000" fill-opacity="1"></use><g><use xlink:href="#fR0W9voZY" opacity="1" fill-opacity="0" stroke="#000000" stroke-width="1" stroke-opacity="0"></use></g></g><g><use xlink:href="#a61hwmxLL" opacity="1" fill="#000000" fill-opacity="1"></use><g><use xlink:href="#a61hwmxLL" opacity="1" fill-opacity="0" stroke="#000000" stroke-width="1" stroke-opacity="0"></use></g></g><g><use xlink:href="#aJsC0PC93" opacity="1" fill="#000000" fill-opacity="1"></use><g><use xlink:href="#aJsC0PC93" opacity="1" fill-opacity="0" stroke="#000000" stroke-width="1" stroke-opacity="0"></use></g></g><g><use xlink:href="#a3oWCOjOM2" opacity="1" fill="#636780" fill-opacity="1"></use><g><use xlink:href="#a3oWCOjOM2" opacity="1" fill-opacity="0" stroke="#000000" stroke-width="1" stroke-opacity="0"></use></g></g><g><use xlink:href="#a17eghMZZf" opacity="1" fill="#000000" fill-opacity="1"></use><g><use xlink:href="#a17eghMZZf" opacity="1" fill-opacity="0" stroke="#000000" stroke-width="1" stroke-opacity="0"></use></g></g><g><use xlink:href="#c5CHRBOp1e" opacity="1" fill="#000000" fill-opacity="1"></use><g><use xlink:href="#c5CHRBOp1e" opacity="1" fill-opacity="0" stroke="#000000" stroke-width="1" stroke-opacity="0"></use></g></g><g><use xlink:href="#a3ShYyn3AG" opacity="1" fill="#000000" fill-opacity="1"></use><g><use xlink:href="#a3ShYyn3AG" opacity="1" fill-opacity="0" stroke="#000000" stroke-width="1" stroke-opacity="0"></use></g></g><g><use xlink:href="#cChGp9mhv" opacity="1" fill="#000000" fill-opacity="1"></use><g><use xlink:href="#cChGp9mhv" opacity="1" fill-opacity="0" stroke="#000000" stroke-width="1" stroke-opacity="0"></use></g></g><g><use xlink:href="#a135xJZ2Po" opacity="1" fill="#000000" fill-opacity="1"></use><g><use xlink:href="#a135xJZ2Po" opacity="1" fill-opacity="0" stroke="#000000" stroke-width="1" stroke-opacity="0"></use></g></g><g><use xlink:href="#bleIdT6Oc" opacity="1" fill="#000000" fill-opacity="1"></use><g><use xlink:href="#bleIdT6Oc" opacity="1" fill-opacity="0" stroke="#000000" stroke-width="1" stroke-opacity="0"></use></g></g><g><use xlink:href="#b4YqKW6UK9" opacity="1" fill="#636780" fill-opacity="1"></use><g><use xlink:href="#b4YqKW6UK9" opacity="1" fill-opacity="0" stroke="#000000" stroke-width="1" stroke-opacity="0"></use></g></g><g><use xlink:href="#bxbDdHblA" opacity="1" fill="#000000" fill-opacity="1"></use><g><use xlink:href="#bxbDdHblA" opacity="1" fill-opacity="0" stroke="#000000" stroke-width="1" stroke-opacity="0"></use></g></g><g><use xlink:href="#e9h3CzzSw" opacity="1" fill="#f0f0f4" fill-opacity="1"></use><g><use xlink:href="#e9h3CzzSw" opacity="1" fill-opacity="0" stroke="#000000" stroke-width="1" stroke-opacity="0"></use></g></g><g><use xlink:href="#djMILKI4E" opacity="1" fill="#636780" fill-opacity="1"></use><g><use xlink:href="#djMILKI4E" opacity="1" fill-opacity="0" stroke="#000000" stroke-width="1" stroke-opacity="0"></use></g></g><g><use xlink:href="#aF872CJZx" opacity="1" fill="#636780" fill-opacity="1"></use><g><use xlink:href="#aF872CJZx" opacity="1" fill-opacity="0" stroke="#000000" stroke-width="1" stroke-opacity="0"></use></g></g><g><use xlink:href="#f77MJ8P26N" opacity="1" fill="#636780" fill-opacity="1"></use><g><use xlink:href="#f77MJ8P26N" opacity="1" fill-opacity="0" stroke="#000000" stroke-width="1" stroke-opacity="0"></use></g></g><g><use xlink:href="#a2EvvD66q8" opacity="1" fill="#636780" fill-opacity="1"></use><g><use xlink:href="#a2EvvD66q8" opacity="1" fill-opacity="0" stroke="#000000" stroke-width="1" stroke-opacity="0"></use></g></g><g><use xlink:href="#ePszcvvgi" opacity="1" fill="#65617d" fill-opacity="1"></use><g><use xlink:href="#ePszcvvgi" opacity="1" fill-opacity="0" stroke="#000000" stroke-width="1" stroke-opacity="0"></use></g></g><g><use xlink:href="#b266lM9atI" opacity="1" fill="#000000" fill-opacity="1"></use><g><use xlink:href="#b266lM9atI" opacity="1" fill-opacity="0" stroke="#000000" stroke-width="1" stroke-opacity="0"></use></g></g><g><use xlink:href="#hHfa4bKUc" opacity="1" fill="#636780" fill-opacity="1"></use><g><use xlink:href="#hHfa4bKUc" opacity="1" fill-opacity="0" stroke="#000000" stroke-width="1" stroke-opacity="0"></use></g></g><g><use xlink:href="#a1wPXkFArE" opacity="1" fill="#636780" fill-opacity="1"></use><g><use xlink:href="#a1wPXkFArE" opacity="1" fill-opacity="0" stroke="#000000" stroke-width="1" stroke-opacity="0"></use></g></g><g><use xlink:href="#b2S7LthN2D" opacity="1" fill="#636780" fill-opacity="1"></use><g><use xlink:href="#b2S7LthN2D" opacity="1" fill-opacity="0" stroke="#000000" stroke-width="1" stroke-opacity="0"></use></g></g><g><use xlink:href="#atXWI4lVn" opacity="1" fill="#000000" fill-opacity="1"></use><g><use xlink:href="#atXWI4lVn" opacity="1" fill-opacity="0" stroke="#000000" stroke-width="1" stroke-opacity="0"></use></g></g><g><use xlink:href="#e42EyOtzYx" opacity="1" fill="#000000" fill-opacity="1"></use><g><use xlink:href="#e42EyOtzYx" opacity="1" fill-opacity="0" stroke="#000000" stroke-width="1" stroke-opacity="0"></use></g></g><g><use xlink:href="#el4qYPgfH" opacity="1" fill="#65617d" fill-opacity="1"></use><g><use xlink:href="#el4qYPgfH" opacity="1" fill-opacity="0" stroke="#000000" stroke-width="1" stroke-opacity="0"></use></g></g><g><use xlink:href="#asHynojd9" opacity="1" fill="#000000" fill-opacity="1"></use><g><use xlink:href="#asHynojd9" opacity="1" fill-opacity="0" stroke="#000000" stroke-width="1" stroke-opacity="0"></use></g></g><g><use xlink:href="#bpNGT1B9Q" opacity="1" fill="#65617d" fill-opacity="1"></use><g><use xlink:href="#bpNGT1B9Q" opacity="1" fill-opacity="0" stroke="#000000" stroke-width="1" stroke-opacity="0"></use></g></g><g><use xlink:href="#b2eJnQvwT" opacity="1" fill="#65617d" fill-opacity="1"></use><g><use xlink:href="#b2eJnQvwT" opacity="1" fill-opacity="0" stroke="#000000" stroke-width="1" stroke-opacity="0"></use></g></g><g><use xlink:href="#b1AEg98lcD" opacity="1" fill="#ffffff" fill-opacity="1"></use><g><use xlink:href="#b1AEg98lcD" opacity="1" fill-opacity="0" stroke="#000000" stroke-width="1" stroke-opacity="0"></use></g></g><g><use xlink:href="#f3dhkStcdg" opacity="1" fill="#000000" fill-opacity="1"></use><g><use xlink:href="#f3dhkStcdg" opacity="1" fill-opacity="0" stroke="#000000" stroke-width="1" stroke-opacity="0"></use></g></g><g><use xlink:href="#b1KppTAnO6" opacity="1" fill="#dce0ed" fill-opacity="1"></use><g><use xlink:href="#b1KppTAnO6" opacity="1" fill-opacity="0" stroke="#000000" stroke-width="1" stroke-opacity="0"></use></g></g><g><use xlink:href="#c3v7VVxG7J" opacity="1" fill="#636780" fill-opacity="1"></use><g><use xlink:href="#c3v7VVxG7J" opacity="1" fill-opacity="0" stroke="#000000" stroke-width="1" stroke-opacity="0"></use></g></g><g><use xlink:href="#d1IG05u4e4" opacity="1" fill="#000000" fill-opacity="1"></use><g><use xlink:href="#d1IG05u4e4" opacity="1" fill-opacity="0" stroke="#000000" stroke-width="1" stroke-opacity="0"></use></g></g><g><use xlink:href="#a3AuPlGGQK" opacity="1" fill="#f0f0f4" fill-opacity="1"></use><g><use xlink:href="#a3AuPlGGQK" opacity="1" fill-opacity="0" stroke="#000000" stroke-width="1" stroke-opacity="0"></use></g></g><g><use xlink:href="#a51TFQxbHE" opacity="1" fill="#636780" fill-opacity="1"></use><g><use xlink:href="#a51TFQxbHE" opacity="1" fill-opacity="0" stroke="#000000" stroke-width="1" stroke-opacity="0"></use></g></g><g><use xlink:href="#b2EimFkpnK" opacity="1" fill="#636780" fill-opacity="1"></use><g><use xlink:href="#b2EimFkpnK" opacity="1" fill-opacity="0" stroke="#000000" stroke-width="1" stroke-opacity="0"></use></g></g><g><use xlink:href="#a5IGifjFJ" opacity="1" fill="#636780" fill-opacity="1"></use><g><use xlink:href="#a5IGifjFJ" opacity="1" fill-opacity="0" stroke="#000000" stroke-width="1" stroke-opacity="0"></use></g></g><g><use xlink:href="#b5DrMSVwi7" opacity="1" fill="#636780" fill-opacity="1"></use><g><use xlink:href="#b5DrMSVwi7" opacity="1" fill-opacity="0" stroke="#000000" stroke-width="1" stroke-opacity="0"></use></g></g><g><use xlink:href="#a21wkW9JqJ" opacity="1" fill="#636780" fill-opacity="1"></use><g><use xlink:href="#a21wkW9JqJ" opacity="1" fill-opacity="0" stroke="#000000" stroke-width="1" stroke-opacity="0"></use></g></g><g><use xlink:href="#addz7nEvt" opacity="1" fill="#636780" fill-opacity="1"></use><g><use xlink:href="#addz7nEvt" opacity="1" fill-opacity="0" stroke="#000000" stroke-width="1" stroke-opacity="0"></use></g></g><g><use xlink:href="#i30BdeMwah" opacity="1" fill="#000000" fill-opacity="1"></use><g><use xlink:href="#i30BdeMwah" opacity="1" fill-opacity="0" stroke="#000000" stroke-width="1" stroke-opacity="0"></use></g></g><g><use xlink:href="#b6pCzesut" opacity="1" fill="#dce0ed" fill-opacity="1"></use><g><use xlink:href="#b6pCzesut" opacity="1" fill-opacity="0" stroke="#000000" stroke-width="1" stroke-opacity="0"></use></g></g><g><use xlink:href="#bhMeofzFu" opacity="1" fill="#65617d" fill-opacity="1"></use><g><use xlink:href="#bhMeofzFu" opacity="1" fill-opacity="0" stroke="#000000" stroke-width="1" stroke-opacity="0"></use></g></g><g><use xlink:href="#b2QXRiBcs" opacity="1" fill="#6b94af" fill-opacity="1"></use><g><use xlink:href="#b2QXRiBcs" opacity="1" fill-opacity="0" stroke="#000000" stroke-width="1" stroke-opacity="0"></use></g></g><g><use xlink:href="#e1NRsGDT1R" opacity="1" fill="#a8a8a8" fill-opacity="1"></use><g><use xlink:href="#e1NRsGDT1R" opacity="1" fill-opacity="0" stroke="#000000" stroke-width="1" stroke-opacity="0"></use></g></g><g><use xlink:href="#b46KCLB54" opacity="1" fill="#000000" fill-opacity="1"></use><g><use xlink:href="#b46KCLB54" opacity="1" fill-opacity="0" stroke="#000000" stroke-width="1" stroke-opacity="0"></use></g></g><g><use xlink:href="#c2zryif2Xk" opacity="1" fill="#6b94af" fill-opacity="1"></use><g><use xlink:href="#c2zryif2Xk" opacity="1" fill-opacity="0" stroke="#000000" stroke-width="1" stroke-opacity="0"></use></g></g><g><use xlink:href="#a2lwSWovRj" opacity="1" fill="#a8a8a8" fill-opacity="1"></use><g><use xlink:href="#a2lwSWovRj" opacity="1" fill-opacity="0" stroke="#000000" stroke-width="1" stroke-opacity="0"></use></g></g><g><use xlink:href="#c22S44lEkB" opacity="1" fill="#000000" fill-opacity="1"></use><g><use xlink:href="#c22S44lEkB" opacity="1" fill-opacity="0" stroke="#000000" stroke-width="1" stroke-opacity="0"></use></g></g><g><use xlink:href="#c80TF7j9F5" opacity="1" fill="#6b94af" fill-opacity="1"></use><g><use xlink:href="#c80TF7j9F5" opacity="1" fill-opacity="0" stroke="#000000" stroke-width="1" stroke-opacity="0"></use></g></g><g><use xlink:href="#f3dsIUA3x7" opacity="1" fill="#a8a8a8" fill-opacity="1"></use><g><use xlink:href="#f3dsIUA3x7" opacity="1" fill-opacity="0" stroke="#000000" stroke-width="1" stroke-opacity="0"></use></g></g><g><use xlink:href="#iYBJ47mFU" opacity="1" fill="#000000" fill-opacity="1"></use><g><use xlink:href="#iYBJ47mFU" opacity="1" fill-opacity="0" stroke="#000000" stroke-width="1" stroke-opacity="0"></use></g></g><g><use xlink:href="#a8DlabTU7" opacity="1" fill="#65617d" fill-opacity="1"></use><g><use xlink:href="#a8DlabTU7" opacity="1" fill-opacity="0" stroke="#000000" stroke-width="1" stroke-opacity="0"></use></g></g><g><use xlink:href="#afx2V4bvB" opacity="1" fill="#000000" fill-opacity="1"></use><g><use xlink:href="#afx2V4bvB" opacity="1" fill-opacity="0" stroke="#000000" stroke-width="1" stroke-opacity="0"></use></g></g><g><use xlink:href="#csBuCNiU" opacity="1" fill="#dce0ed" fill-opacity="1"></use><g><use xlink:href="#csBuCNiU" opacity="1" fill-opacity="0" stroke="#000000" stroke-width="1" stroke-opacity="0"></use></g></g><g><use xlink:href="#a5C9XXjbNp" opacity="1" fill="#65617d" fill-opacity="1"></use><g><use xlink:href="#a5C9XXjbNp" opacity="1" fill-opacity="0" stroke="#000000" stroke-width="1" stroke-opacity="0"></use></g></g><g><use xlink:href="#c2c1srGkFv" opacity="1" fill="#65617d" fill-opacity="1"></use><g><use xlink:href="#c2c1srGkFv" opacity="1" fill-opacity="0" stroke="#000000" stroke-width="1" stroke-opacity="0"></use></g></g><g><use xlink:href="#a1z9Py6wbV" opacity="1" fill="#000000" fill-opacity="1"></use><g><use xlink:href="#a1z9Py6wbV" opacity="1" fill-opacity="0" stroke="#000000" stroke-width="1" stroke-opacity="0"></use></g></g><g><use xlink:href="#bTjSk5ASv" opacity="1" fill="#dce0ed" fill-opacity="1"></use><g><use xlink:href="#bTjSk5ASv" opacity="1" fill-opacity="0" stroke="#000000" stroke-width="1" stroke-opacity="0"></use></g></g><g><use xlink:href="#b1WMF3v0ee" opacity="1" fill="#65617d" fill-opacity="1"></use><g><use xlink:href="#b1WMF3v0ee" opacity="1" fill-opacity="0" stroke="#000000" stroke-width="1" stroke-opacity="0"></use></g></g><g><use xlink:href="#c7KQFaT7TI" opacity="1" fill="#444053" fill-opacity="1"></use><g><use xlink:href="#c7KQFaT7TI" opacity="1" fill-opacity="0" stroke="#000000" stroke-width="1" stroke-opacity="0"></use></g></g><g><use xlink:href="#aXSdoFPi2" opacity="1" fill="#33323d" fill-opacity="1"></use><g><use xlink:href="#aXSdoFPi2" opacity="1" fill-opacity="0" stroke="#000000" stroke-width="1" stroke-opacity="0"></use></g></g><g><use xlink:href="#e2PPvRr1Hf" opacity="1" fill="#33323d" fill-opacity="1"></use><g><use xlink:href="#e2PPvRr1Hf" opacity="1" fill-opacity="0" stroke="#000000" stroke-width="1" stroke-opacity="0"></use></g></g><g><use xlink:href="#dqz3vIlpb" opacity="1" fill="#33323d" fill-opacity="1"></use><g><use xlink:href="#dqz3vIlpb" opacity="1" fill-opacity="0" stroke="#000000" stroke-width="1" stroke-opacity="0"></use></g></g><g><use xlink:href="#d2q0aPJ5Vs" opacity="1" fill="#33323d" fill-opacity="1"></use><g><use xlink:href="#d2q0aPJ5Vs" opacity="1" fill-opacity="0" stroke="#000000" stroke-width="1" stroke-opacity="0"></use></g></g><g><use xlink:href="#b77cTKwT9o" opacity="1" fill="#6b94af" fill-opacity="1"></use><g><use xlink:href="#b77cTKwT9o" opacity="1" fill-opacity="0" stroke="#000000" stroke-width="1" stroke-opacity="0"></use></g></g><g><use xlink:href="#a3R9aw6Gtd" opacity="1" fill="#6b94af" fill-opacity="1"></use><g><use xlink:href="#a3R9aw6Gtd" opacity="1" fill-opacity="0" stroke="#000000" stroke-width="1" stroke-opacity="0"></use></g></g><g><use xlink:href="#i1kLZQc5ch" opacity="1" fill="#33323d" fill-opacity="1"></use><g><use xlink:href="#i1kLZQc5ch" opacity="1" fill-opacity="0" stroke="#000000" stroke-width="1" stroke-opacity="0"></use></g></g><g><use xlink:href="#a3n7zbabsW" opacity="1" fill="#6b94af" fill-opacity="1"></use><g><use xlink:href="#a3n7zbabsW" opacity="1" fill-opacity="0" stroke="#000000" stroke-width="1" stroke-opacity="0"></use></g></g><g><use xlink:href="#dbWPsccqN" opacity="1" fill="#33323d" fill-opacity="1"></use><g><use xlink:href="#dbWPsccqN" opacity="1" fill-opacity="0" stroke="#000000" stroke-width="1" stroke-opacity="0"></use></g></g><g><use xlink:href="#hgFnt5vX" opacity="1" fill="#33323d" fill-opacity="1"></use><g><use xlink:href="#hgFnt5vX" opacity="1" fill-opacity="0" stroke="#000000" stroke-width="1" stroke-opacity="0"></use></g></g><g><use xlink:href="#gqZAiK8TK" opacity="1" fill="#000000" fill-opacity="0"></use><g><use xlink:href="#gqZAiK8TK" opacity="1" fill-opacity="0" stroke="#000000" stroke-width="1" stroke-opacity="0"></use></g></g><g><use xlink:href="#b1ITxLbjep" opacity="1" fill="#65617d" fill-opacity="1"></use><g><use xlink:href="#b1ITxLbjep" opacity="1" fill-opacity="0" stroke="#000000" stroke-width="1" stroke-opacity="0"></use></g></g><g><use xlink:href="#htw9aoLiW" opacity="1" fill="#dce0ed" fill-opacity="1"></use><g><use xlink:href="#htw9aoLiW" opacity="1" fill-opacity="0" stroke="#000000" stroke-width="1" stroke-opacity="0"></use></g></g><g><use xlink:href="#j4sn3TgDW3" opacity="1" fill="#65617d" fill-opacity="1"></use><g><use xlink:href="#j4sn3TgDW3" opacity="1" fill-opacity="0" stroke="#000000" stroke-width="1" stroke-opacity="0"></use></g></g><g><use xlink:href="#abtXHKv5P" opacity="1" fill="#65617d" fill-opacity="1"></use><g><use xlink:href="#abtXHKv5P" opacity="1" fill-opacity="0" stroke="#000000" stroke-width="1" stroke-opacity="0"></use></g></g><g><use xlink:href="#obiOkaGm9" opacity="1" fill="#444053" fill-opacity="1"></use><g><use xlink:href="#obiOkaGm9" opacity="1" fill-opacity="0" stroke="#000000" stroke-width="1" stroke-opacity="0"></use></g></g><g><use xlink:href="#a12ocXIgdf" opacity="1" fill="#000000" fill-opacity="1"></use><g><use xlink:href="#a12ocXIgdf" opacity="1" fill-opacity="0" stroke="#000000" stroke-width="1" stroke-opacity="0"></use></g></g><g><use xlink:href="#a174daCK62" opacity="1" fill="#000000" fill-opacity="1"></use><g><use xlink:href="#a174daCK62" opacity="1" fill-opacity="0" stroke="#000000" stroke-width="1" stroke-opacity="0"></use></g></g><g><use xlink:href="#k2XrJB62u0" opacity="1" fill="#dce0ed" fill-opacity="1"></use><g><use xlink:href="#k2XrJB62u0" opacity="1" fill-opacity="0" stroke="#000000" stroke-width="1" stroke-opacity="0"></use></g></g><g><use xlink:href="#c1j995givx" opacity="1" fill="#000000" fill-opacity="1"></use><g><use xlink:href="#c1j995givx" opacity="1" fill-opacity="0" stroke="#000000" stroke-width="1" stroke-opacity="0"></use></g></g><g><use xlink:href="#dXeEUzSco" opacity="1" fill="#000000" fill-opacity="1"></use><g><use xlink:href="#dXeEUzSco" opacity="1" fill-opacity="0" stroke="#000000" stroke-width="1" stroke-opacity="0"></use></g></g><g><use xlink:href="#b186uZdivV" opacity="1" fill="#6b94af" fill-opacity="1"></use><g><use xlink:href="#b186uZdivV" opacity="1" fill-opacity="0" stroke="#000000" stroke-width="1" stroke-opacity="0"></use></g></g><g><use xlink:href="#cEWpARyRd" opacity="1" fill="#ffffff" fill-opacity="1"></use><g><use xlink:href="#cEWpARyRd" opacity="1" fill-opacity="0" stroke="#000000" stroke-width="1" stroke-opacity="0"></use></g></g><g><use xlink:href="#f277Fg2Wli" opacity="1" fill="#65617d" fill-opacity="1"></use><g><use xlink:href="#f277Fg2Wli" opacity="1" fill-opacity="0" stroke="#000000" stroke-width="1" stroke-opacity="0"></use></g></g><g><use xlink:href="#cnVVjsjUO" opacity="1" fill="#dce0ed" fill-opacity="1"></use><g><use xlink:href="#cnVVjsjUO" opacity="1" fill-opacity="0" stroke="#000000" stroke-width="1" stroke-opacity="0"></use></g></g><g><use xlink:href="#l4tiH7VjNT" opacity="1" fill="#65617d" fill-opacity="1"></use><g><use xlink:href="#l4tiH7VjNT" opacity="1" fill-opacity="0" stroke="#000000" stroke-width="1" stroke-opacity="0"></use></g></g><g><use xlink:href="#d2ely34ob4" opacity="1" fill="#000000" fill-opacity="1"></use><g><use xlink:href="#d2ely34ob4" opacity="1" fill-opacity="0" stroke="#000000" stroke-width="1" stroke-opacity="0"></use></g></g><g><use xlink:href="#f2Bm8yHYQ3" opacity="1" fill="#6b94af" fill-opacity="1"></use><g><use xlink:href="#f2Bm8yHYQ3" opacity="1" fill-opacity="0" stroke="#000000" stroke-width="1" stroke-opacity="0"></use></g></g><g><use xlink:href="#c10QFOsHTS" opacity="1" fill="#ffffff" fill-opacity="1"></use><g><use xlink:href="#c10QFOsHTS" opacity="1" fill-opacity="0" stroke="#000000" stroke-width="1" stroke-opacity="0"></use></g></g><g><use xlink:href="#bzqdZYyD" opacity="1" fill="#000000" fill-opacity="1"></use><g><use xlink:href="#bzqdZYyD" opacity="1" fill-opacity="0" stroke="#000000" stroke-width="1" stroke-opacity="0"></use></g></g><g><use xlink:href="#bbSmgXZpZR" opacity="1" fill="#000000" fill-opacity="1"></use><g><use xlink:href="#bbSmgXZpZR" opacity="1" fill-opacity="0" stroke="#000000" stroke-width="1" stroke-opacity="0"></use></g></g><g><use xlink:href="#abfGMCq26" opacity="1" fill="#dce0ed" fill-opacity="1"></use><g><use xlink:href="#abfGMCq26" opacity="1" fill-opacity="0" stroke="#000000" stroke-width="1" stroke-opacity="0"></use></g></g><g><use xlink:href="#ga8OEQU8p" opacity="1" fill="#000000" fill-opacity="1"></use><g><use xlink:href="#ga8OEQU8p" opacity="1" fill-opacity="0" stroke="#000000" stroke-width="1" stroke-opacity="0"></use></g></g><g><use xlink:href="#b1q0UVezuN" opacity="1" fill="#6b94af" fill-opacity="1"></use><g><use xlink:href="#b1q0UVezuN" opacity="1" fill-opacity="0" stroke="#000000" stroke-width="1" stroke-opacity="0"></use></g></g><g><use xlink:href="#m29bY29cdP" opacity="1" fill="#6b94af" fill-opacity="1"></use><g><use xlink:href="#m29bY29cdP" opacity="1" fill-opacity="0" stroke="#000000" stroke-width="1" stroke-opacity="0"></use></g></g><g><use xlink:href="#a7jr710ezr" opacity="1" fill="#000000" fill-opacity="1"></use><g><use xlink:href="#a7jr710ezr" opacity="1" fill-opacity="0" stroke="#000000" stroke-width="1" stroke-opacity="0"></use></g></g><g><use xlink:href="#c7aYJSeiw" opacity="1" fill="#000000" fill-opacity="1"></use><g><use xlink:href="#c7aYJSeiw" opacity="1" fill-opacity="0" stroke="#000000" stroke-width="1" stroke-opacity="0"></use></g></g><g><use xlink:href="#a394W6F9Qt" opacity="1" fill="#dce0ed" fill-opacity="1"></use><g><use xlink:href="#a394W6F9Qt" opacity="1" fill-opacity="0" stroke="#000000" stroke-width="1" stroke-opacity="0"></use></g></g><g><use xlink:href="#auTSxxBSa" opacity="1" fill="#6b94af" fill-opacity="1"></use><g><use xlink:href="#auTSxxBSa" opacity="1" fill-opacity="0" stroke="#000000" stroke-width="1" stroke-opacity="0"></use></g></g><g><use xlink:href="#bPDT0SAV8" opacity="1" fill="#dce0ed" fill-opacity="1"></use><g><use xlink:href="#bPDT0SAV8" opacity="1" fill-opacity="0" stroke="#000000" stroke-width="1" stroke-opacity="0"></use></g></g><g><use xlink:href="#h6wLQl884u" opacity="1" fill="#dce0ed" fill-opacity="1"></use><g><use xlink:href="#h6wLQl884u" opacity="1" fill-opacity="0" stroke="#000000" stroke-width="1" stroke-opacity="0"></use></g></g></g></g></svg>